<?xml version="1.0" encoding="utf-8"?>
<!-- Generator: Adobe Illustrator 24.0.1, SVG Export Plug-In . SVG Version: 6.00 Build 0)  -->
<svg version="1.1" id="Слой_1" xmlns="http://www.w3.org/2000/svg" xmlns:xlink="http://www.w3.org/1999/xlink" x="0px" y="0px"
	 viewBox="0 0 1169 181" style="enable-background:new 0 0 1169 181;" xml:space="preserve">
<style type="text/css">
	.st0{fill:#0FBF00;}
</style>
<path class="st0" d="M117.7,39.8v3.6l-44.5,98.1h-27L1.7,43.4v-3.6h23.9l34.1,78.9l34.1-78.9H117.7z M221.8,39.8v20.5h-67.1v20.2h64
	v20.3h-64v20.3h67.1v20.5h-90.4V39.8H221.8z M346.7,74.4c0,8.3-2.6,15-7.9,20.3c-5.2,5.3-12.6,8.6-22.2,9.9l29.6,33.3v3.6h-26.7
	L288,105.1h-21.2v36.4h-23.3V39.8H308c12.1,0,21.6,2.9,28.4,8.8c6.9,5.8,10.4,13.8,10.4,24V74.4z M323,72.2c0-3.8-1.3-6.7-4-8.7
	c-2.6-2.1-6.5-3.1-11.6-3.1h-40.6v25.4h40.6c5.1,0,8.9-1,11.6-2.9c2.7-2.1,4-5.1,4-9V72.2z M419.1,39.8c19,0,33.4,4.2,43.1,12.7
	c9.8,8.4,14.7,20.8,14.7,37.4v1.7c0,16.5-4.9,29-14.6,37.4c-9.7,8.4-24.1,12.6-43.3,12.6h-50.7V39.8H419.1z M419.1,120.6
	c11.7,0,20.3-2.3,25.7-7c5.6-4.7,8.4-11.9,8.4-21.7v-2.2c0-9.7-2.8-17-8.5-21.7c-5.7-4.9-14.3-7.3-25.7-7.3h-27.3v59.9H419.1z
	 M586.9,39.8v20.5h-67.1v20.2h64v20.3h-64v20.3h67.1v20.5h-90.4V39.8H586.9z M641.6,31.8c7.4,0,14,1.3,19.5,4
	c5.6,2.7,9.9,6.5,12.9,11.5c3.1,5,4.7,10.8,4.7,17.4v1.6c0,6.5-1.6,12.2-4.7,17.2c-3,4.9-7.3,8.6-12.9,11.3c-5.6,2.7-12.1,4-19.5,4
	c-7.4,0-14-1.3-19.7-4c-5.6-2.7-9.9-6.5-13-11.3c-3-5-4.5-10.7-4.5-17.2v-1.6c0-6.6,1.5-12.4,4.5-17.4c3.1-5,7.4-8.8,13-11.5
	C627.6,33.1,634.1,31.8,641.6,31.8z M669.2,64.3c0-7.6-2.4-13.6-7.3-17.8c-4.9-4.2-11.6-6.4-20.3-6.4c-8.7,0-15.5,2.2-20.5,6.5
	c-5,4.2-7.4,10.1-7.4,17.7v2c0,7.5,2.5,13.4,7.4,17.7c5,4.2,11.8,6.4,20.5,6.4c8.7,0,15.5-2.1,20.3-6.4c4.9-4.2,7.3-10.1,7.3-17.7
	V64.3z M647.6,49.3c3.9,0,7,0.9,9.1,2.8c2.2,1.8,3.3,4.2,3.3,7.4v1.1c0,2.5-0.7,4.7-2.2,6.5c-1.3,1.8-3.3,2.9-5.9,3.6l7.9,9.6v0.8
	h-10.2l-7.8-9.8h-7.8v9.8h-9.5V49.3H647.6z M634.1,64.5h11c1.7,0,2.9-0.4,3.7-1.1c0.9-0.7,1.4-1.7,1.4-2.9v-0.8c0-1.1-0.5-2-1.4-2.6
	c-0.8-0.7-2.1-1.1-3.7-1.1h-11V64.5z M688.7,60.8V39.8h102.8v20.9h-39.7v80.8h-23.4V60.8H688.7z M896.2,39.8v20.5h-67.1v20.2h64
	v20.3h-64v20.3h67.1v20.5h-90.4V39.8H896.2z M974.6,143.4c-12.3,0-23.1-2.1-32.4-6.4c-9.3-4.2-16.5-10.2-21.6-18
	c-5-7.9-7.4-17-7.4-27.4v-1.7c0-10.4,2.5-19.5,7.4-27.3c5.1-7.9,12.3-13.9,21.6-18.1c9.3-4.3,20.1-6.5,32.4-6.5
	c11.4,0,21.6,1.9,30.5,5.6c9.1,3.7,16.2,8.9,21.3,15.5c5.2,6.6,7.8,14.1,7.8,22.3v1.2h-23.7v-1.2c0-4.2-1.6-8-4.7-11.3
	c-3-3.3-7.2-5.9-12.7-7.8c-5.4-1.9-11.6-2.8-18.6-2.8c-12.3,0-21.7,2.6-28.1,7.8c-6.3,5.2-9.5,12.6-9.5,22.3v2.3
	c0,9.8,3.2,17.3,9.5,22.3c6.3,5.1,15.7,7.6,28.2,7.6c10.9,0,19.5-2,26.1-5.9c6.5-4,9.8-9.3,9.8-15.8v-1.1h23.7v1.1
	c0,8.3-2.6,15.7-7.8,22.3c-5.1,6.5-12.2,11.6-21.3,15.4C996.2,141.5,986,143.4,974.6,143.4z M1076.7,39.8v40.5h56.3V39.8h23.3v101.7
	h-23.3v-40.5h-56.3v40.5h-23.3V39.8H1076.7z"/>
</svg>
