<?xml version="1.0" encoding="utf-8"?>
<!-- Generator: Adobe Illustrator 24.0.1, SVG Export Plug-In . SVG Version: 6.00 Build 0)  -->
<svg version="1.1" id="Слой_1" xmlns="http://www.w3.org/2000/svg" xmlns:xlink="http://www.w3.org/1999/xlink" x="0px" y="0px"
	 viewBox="0 0 1925 712" style="enable-background:new 0 0 1925 712;" xml:space="preserve">
<style type="text/css">
	.st0{fill:#0FBF00;}
</style>
<g>
	<path class="st0" d="M872.8,302.7v3.6l-44.5,98.1h-27l-44.5-98.1v-3.6h23.9l34.1,78.9l34.1-78.9H872.8z M976.9,302.7v20.5h-67.1
		v20.2h64v20.3h-64V384h67.1v20.5h-90.4V302.7H976.9z M1101.8,337.3c0,8.3-2.6,15-7.9,20.3c-5.2,5.3-12.6,8.6-22.2,9.9l29.6,33.3
		v3.6h-26.7l-31.6-36.4h-21.2v36.4h-23.3V302.7h64.5c12.1,0,21.6,2.9,28.4,8.8c6.9,5.8,10.4,13.8,10.4,24V337.3z M1078.1,335.1
		c0-3.8-1.3-6.7-4-8.7c-2.6-2.1-6.5-3.1-11.6-3.1h-40.6v25.4h40.6c5.1,0,8.9-1,11.6-2.9c2.7-2.1,4-5.1,4-9V335.1z M1174.2,302.7
		c19,0,33.4,4.2,43.1,12.7c9.8,8.4,14.7,20.8,14.7,37.4v1.7c0,16.5-4.9,29-14.6,37.4c-9.7,8.4-24.1,12.6-43.3,12.6h-50.7V302.7
		H1174.2z M1174.2,383.5c11.7,0,20.3-2.3,25.7-7c5.6-4.7,8.4-11.9,8.4-21.7v-2.2c0-9.7-2.8-17-8.5-21.7c-5.7-4.9-14.3-7.3-25.7-7.3
		h-27.3v59.9H1174.2z M1342,302.7v20.5h-67.1v20.2h64v20.3h-64V384h67.1v20.5h-90.4V302.7H1342z M1396.7,294.7
		c7.4,0,13.9,1.3,19.5,4c5.6,2.7,9.9,6.5,12.9,11.5c3.1,5,4.7,10.8,4.7,17.4v1.6c0,6.5-1.5,12.3-4.7,17.2c-3,4.9-7.3,8.6-12.9,11.3
		c-5.6,2.7-12.1,4-19.5,4c-7.5,0-14-1.3-19.7-4c-5.6-2.7-9.9-6.5-13-11.3c-3-5-4.5-10.7-4.5-17.2v-1.6c0-6.6,1.5-12.4,4.5-17.4
		c3.1-5,7.4-8.8,13-11.5C1382.7,296,1389.2,294.7,1396.7,294.7z M1424.3,327.2c0-7.6-2.4-13.6-7.3-17.8c-4.9-4.2-11.6-6.4-20.3-6.4
		c-8.7,0-15.5,2.2-20.5,6.5c-5,4.2-7.4,10.1-7.4,17.7v2c0,7.5,2.5,13.4,7.4,17.7c5,4.2,11.8,6.4,20.5,6.4c8.7,0,15.4-2.1,20.3-6.4
		c4.9-4.2,7.3-10.1,7.3-17.7V327.2z M1402.7,312.2c3.9,0,7,0.9,9.2,2.8c2.2,1.8,3.3,4.2,3.3,7.4v1.1c0,2.5-0.7,4.7-2.2,6.5
		c-1.3,1.8-3.3,2.9-5.9,3.6l7.9,9.6v0.8h-10.2l-7.8-9.8h-7.8v9.8h-9.4v-31.8H1402.7z M1389.2,327.4h11c1.7,0,2.9-0.4,3.7-1.1
		c0.9-0.7,1.4-1.7,1.4-2.9v-0.8c0-1.1-0.5-2-1.4-2.6c-0.8-0.7-2.1-1.1-3.7-1.1h-11V327.4z M1443.8,323.7v-20.9h102.8v20.9h-39.7
		v80.8h-23.4v-80.8H1443.8z M1651.3,302.7v20.5h-67.1v20.2h64v20.3h-64V384h67.1v20.5h-90.4V302.7H1651.3z M1729.7,406.3
		c-12.3,0-23.1-2.1-32.4-6.4c-9.3-4.2-16.5-10.2-21.5-18c-5-7.9-7.4-17-7.4-27.4v-1.7c0-10.4,2.5-19.5,7.4-27.3
		c5.1-7.9,12.3-13.9,21.5-18.1c9.3-4.3,20.1-6.5,32.4-6.5c11.4,0,21.6,1.9,30.6,5.6c9.1,3.7,16.2,8.9,21.2,15.5
		c5.2,6.6,7.8,14.1,7.8,22.3v1.2h-23.7v-1.2c0-4.2-1.6-8-4.7-11.3c-3-3.3-7.2-5.9-12.7-7.8c-5.4-1.9-11.6-2.8-18.6-2.8
		c-12.3,0-21.7,2.6-28.1,7.8c-6.3,5.2-9.5,12.6-9.5,22.3v2.3c0,9.8,3.2,17.3,9.5,22.3c6.3,5.1,15.7,7.6,28.2,7.6
		c10.8,0,19.5-2,26.1-5.9c6.5-4,9.8-9.3,9.8-15.8V362h23.7v1.1c0,8.3-2.6,15.7-7.8,22.3c-5.1,6.5-12.2,11.6-21.2,15.3
		C1751.3,404.4,1741.1,406.3,1729.7,406.3z M1831.8,302.7v40.5h56.3v-40.5h23.3v101.7h-23.3V364h-56.3v40.5h-23.3V302.7H1831.8z"/>
	
		<ellipse transform="matrix(0.7071 -0.7071 0.7071 0.7071 -50.1949 396.0167)" class="st0" cx="452.9" cy="258.6" rx="113.3" ry="54.2"/>
	
		<ellipse transform="matrix(0.7071 -0.7071 0.7071 0.7071 -245.3065 315.2076)" class="st0" cx="257.8" cy="453.7" rx="113.3" ry="54.2"/>
	
		<ellipse transform="matrix(0.7071 -0.7071 0.7071 0.7071 -188.1619 453.1711)" class="st0" cx="452.9" cy="453.7" rx="54.2" ry="113.3"/>
	
		<ellipse transform="matrix(0.7071 -0.7071 0.7071 0.7071 -107.3394 258.0556)" class="st0" cx="257.8" cy="258.6" rx="54.2" ry="113.3"/>
</g>
</svg>
