<?xml version="1.0" encoding="utf-8"?>
<!-- Generator: Adobe Illustrator 24.0.1, SVG Export Plug-In . SVG Version: 6.00 Build 0)  -->
<svg version="1.1" id="Слой_1" xmlns="http://www.w3.org/2000/svg" xmlns:xlink="http://www.w3.org/1999/xlink" x="0px" y="0px"
	 viewBox="0 0 3538 711" style="enable-background:new 0 0 3538 711;" xml:space="preserve">
<style type="text/css">
	.st0{fill:#0FBF00;}
</style>
<g>
	<path class="st0" d="M117.7,214.1v3.6l-44.5,98.1h-27L1.7,217.7v-3.6h23.9L59.7,293l34.1-78.9H117.7z M221.8,214.1v20.5h-67.1v20.2
		h64v20.3h-64v20.3h67.1v20.5h-90.4V214.1H221.8z M346.7,248.7c0,8.3-2.6,15-7.9,20.3c-5.2,5.3-12.6,8.6-22.2,9.9l29.6,33.3v3.6
		h-26.7L288,279.4h-21.2v36.4h-23.3V214.1H308c12.1,0,21.6,2.9,28.4,8.8c6.9,5.8,10.4,13.8,10.4,24L346.7,248.7L346.7,248.7z
		 M323,246.5c0-3.8-1.3-6.7-4-8.7c-2.6-2.1-6.5-3.1-11.6-3.1h-40.6v25.4h40.6c5.1,0,8.9-1,11.6-2.9c2.7-2.1,4-5.1,4-9V246.5z
		 M419.1,214.1c19,0,33.4,4.2,43.1,12.7c9.8,8.4,14.7,20.8,14.7,37.4v1.7c0,16.5-4.9,29-14.6,37.4s-24.1,12.6-43.3,12.6h-50.7V214.1
		H419.1z M419.1,294.9c11.7,0,20.3-2.3,25.7-7c5.6-4.7,8.4-11.9,8.4-21.7V264c0-9.7-2.8-17-8.5-21.7c-5.7-4.9-14.3-7.3-25.7-7.3
		h-27.3v59.8h27.4V294.9z M586.9,214.1v20.5h-67.1v20.2h64v20.3h-64v20.3h67.1v20.5h-90.4V214.1H586.9z M641.5,206.1
		c7.4,0,14,1.3,19.5,4c5.6,2.7,9.9,6.5,12.9,11.5c3.1,5,4.7,10.8,4.7,17.4v1.5c0,6.5-1.5,12.2-4.7,17.2c-3,4.9-7.3,8.6-12.9,11.3
		c-5.6,2.7-12.1,4-19.5,4s-14-1.3-19.7-4c-5.6-2.7-9.9-6.5-13-11.3c-3-5-4.5-10.7-4.5-17.2V239c0-6.6,1.5-12.4,4.5-17.4
		c3.1-5,7.4-8.8,13-11.5C627.5,207.4,634.1,206.1,641.5,206.1z M669.1,238.6c0-7.6-2.4-13.6-7.3-17.8c-4.9-4.2-11.6-6.4-20.3-6.4
		s-15.5,2.2-20.5,6.5c-5,4.2-7.4,10.1-7.4,17.7v2c0,7.5,2.5,13.4,7.4,17.7c5,4.2,11.8,6.4,20.5,6.4s15.5-2.1,20.3-6.4
		c4.9-4.2,7.3-10.1,7.3-17.7V238.6z M647.6,223.6c3.9,0,7,0.9,9.1,2.8c2.2,1.8,3.3,4.2,3.3,7.4v1.1c0,2.5-0.7,4.7-2.2,6.5
		c-1.3,1.8-3.3,2.9-5.9,3.6l7.9,9.6v0.8h-10.2l-7.8-9.8H634v9.8h-9.5v-31.8L647.6,223.6L647.6,223.6z M634.1,238.8h11
		c1.7,0,2.9-0.4,3.7-1.1c0.9-0.7,1.4-1.7,1.4-2.9V234c0-1.1-0.5-2-1.4-2.6c-0.8-0.7-2.1-1.1-3.7-1.1h-11V238.8z M688.7,235.1v-20.9
		h102.8v20.9h-39.7v80.8h-23.4v-80.8L688.7,235.1L688.7,235.1z M896.2,214.1v20.5h-67.1v20.2h64v20.3h-64v20.3h67.1v20.5h-90.4
		V214.1H896.2z M974.6,317.7c-12.3,0-23.1-2.1-32.4-6.4c-9.3-4.2-16.5-10.2-21.6-18c-5-7.9-7.4-17-7.4-27.4v-1.7
		c0-10.4,2.5-19.5,7.4-27.3c5.1-7.9,12.2-13.9,21.6-18.1c9.3-4.3,20.1-6.5,32.4-6.5c11.4,0,21.6,1.9,30.5,5.6
		c9.1,3.7,16.2,8.9,21.2,15.5c5.2,6.6,7.8,14.1,7.8,22.3v1.2h-23.7v-1.2c0-4.2-1.5-8-4.6-11.3c-3-3.3-7.2-5.9-12.7-7.8
		c-5.4-1.9-11.6-2.8-18.6-2.8c-12.3,0-21.7,2.6-28.1,7.8c-6.3,5.2-9.5,12.6-9.5,22.3v2.3c0,9.8,3.2,17.3,9.5,22.3
		c6.3,5.1,15.7,7.6,28.2,7.6c10.9,0,19.5-2,26-5.9c6.5-4,9.8-9.3,9.8-15.8v-1.1h23.7v1.1c0,8.3-2.6,15.7-7.8,22.3
		c-5.1,6.5-12.2,11.6-21.2,15.4C996.2,315.9,986,317.7,974.6,317.7z M1076.6,214.1v40.5h56.3v-40.5h23.3v101.7h-23.3v-40.5h-56.3
		v40.5h-23.3V214.1H1076.6z M102.5,444.4c6.1,2,10.8,4.8,14,8.5c3.2,3.6,4.8,8,4.8,13v2c0,9.5-4.7,16.8-14,22
		c-9.3,5.1-22.6,7.6-39.8,7.6c-18.5,0-32.5-3.4-42-10.2c-9.4-6.9-14.1-17.1-14.1-30.5v-1.6h11.9v1.6c0,10.2,3.6,17.8,10.7,22.6
		c7.2,4.8,18.5,7.1,33.6,7.1c14.1,0,24.5-1.6,31.3-4.7c6.8-3.1,10.2-7.9,10.2-14.3v-1.9c0-5.4-2.6-9.3-7.8-11.8
		c-5.1-2.5-13.3-3.7-24.7-3.7H48.4v-10.7h27.3c10.8,0,18.6-1.3,23.4-3.9c5-2.6,7.4-6.6,7.4-12.1v-1.9c0-12.2-13.2-18.3-39.5-18.3
		c-28.8,0-43.3,10-43.3,29.9v1.4H11.8v-1.4c0-13.2,4.7-23.4,14.1-30.4c9.5-7,23.3-10.5,41.2-10.5c16.5,0,29.3,2.5,38.1,7.4
		c8.9,5,13.3,12,13.3,21.2v2.2C118.6,433.1,113.2,440.1,102.5,444.4z M239.5,494v1.9h-12.1l-13.6-28.1h-60.5l-13.6,28.1h-12.1V494
		l49.5-99.9h13L239.5,494z M208.5,457.1l-25-51l-25,51H208.5z M346.6,394.1v10.7h-76.3v33h48.4c11.3,0,20.1,2.5,26.4,7.4
		c6.3,5,9.5,11.8,9.5,20.6v2c0,8.7-3.2,15.5-9.6,20.5c-6.3,5-15,7.4-26.2,7.4h-60.2V394.1H346.6z M318.4,485.2
		c7.4,0,13.3-1.6,17.7-4.7c4.3-3.1,6.5-7.3,6.5-12.6v-2c0-5.4-2.2-9.6-6.5-12.7c-4.2-3.1-10.1-4.7-17.7-4.7h-48.1v36.6h48.1V485.2z
		 M433,497.6c-11.6,0-21.7-2.1-30.2-6.2c-8.6-4.2-15.2-10.2-19.8-18c-4.7-7.8-7-16.8-7-27.1V444c0-10.4,2.3-19.5,7-27.3
		s11.3-13.7,19.8-17.8c8.6-4.2,18.7-6.4,30.2-6.4s21.5,2.1,30.1,6.4c8.6,4.2,15.2,10.2,19.8,18c4.7,7.8,7,16.8,7,27.1v2.3
		c0,10.3-2.3,19.4-7,27.1c-4.7,7.8-11.3,13.7-19.8,18C454.5,495.5,444.5,497.6,433,497.6z M433,486.5c14.1,0,25-3.6,32.9-10.7
		c8-7.1,11.9-17,11.9-29.5v-2.6c0-12.5-4-22.3-11.9-29.5c-8-7.2-18.9-10.9-32.9-10.9c-14.1,0-25.1,3.6-33.2,10.9
		c-8,7.1-11.9,17-11.9,29.5v2.6c0,12.5,4,22.3,11.9,29.5C407.9,483,418.9,486.5,433,486.5z M498.2,404.8v-10.7h103.4v10.7h-45.7v91
		H544v-91H498.2z M706.9,494v1.9h-12.1l-13.6-28.1h-60.5l-13.6,28.1H595V494l49.5-99.9h13L706.9,494z M675.9,457.1l-25-51l-25,51
		H675.9z M831.7,497.6c-11.6,0-21.7-2.1-30.2-6.2c-8.6-4.2-15.2-10.2-19.8-18c-4.7-7.8-7-16.8-7-27.1V444c0-10.4,2.3-19.5,7-27.3
		s11.3-13.7,19.8-17.8c8.6-4.2,18.7-6.4,30.2-6.4s21.5,2.1,30.1,6.4c8.6,4.2,15.2,10.2,19.8,18c4.7,7.8,7,16.8,7,27.1v2.3
		c0,10.3-2.3,19.4-7,27.1c-4.7,7.8-11.3,13.7-19.8,18C853.2,495.5,843.1,497.6,831.7,497.6z M831.7,486.5c14.1,0,25-3.6,32.9-10.7
		c8-7.1,11.9-17,11.9-29.5v-2.6c0-12.5-4-22.3-11.9-29.5c-8-7.2-18.9-10.9-32.9-10.9c-14.1,0-25.1,3.6-33.2,10.9
		c-8,7.1-11.9,17-11.9,29.5v2.6c0,12.5,4,22.3,11.9,29.5C806.5,483,817.6,486.5,831.7,486.5z M1065.1,394.1v10.7h-76.3v33h48.4
		c11.3,0,20.1,2.5,26.4,7.4c6.3,5,9.5,11.8,9.5,20.6v2c0,8.7-3.2,15.5-9.6,20.5c-6.3,5-15,7.4-26.2,7.4H977V394.1H1065.1z
		 M1036.8,485.2c7.4,0,13.3-1.6,17.7-4.7c4.3-3.1,6.5-7.3,6.5-12.6v-2c0-5.4-2.2-9.6-6.5-12.7c-4.2-3.1-10.1-4.7-17.7-4.7h-48.1
		v36.6h48.1V485.2z M1193.7,394.1v1.9l-46.5,82c-3.9,6.8-8,11.5-12.1,14.1c-4.1,2.5-9.9,3.7-17.4,3.7h-16.1v-10.7h16.1
		c4.8,0,8.5-0.7,10.8-2c2.5-1.3,4.9-4,7.1-7.9l-49.5-79.2v-1.9h12.4l43.7,70.1l39.1-70.1H1193.7z M1309.9,485.2v31.3H1298v-20.6
		h-99.2v20.6h-11.9v-31.3h13.2c6.4-9.2,9.8-21,10.1-35.5l0.9-55.5h82.8v91H1309.9z M1221,450c-0.3,14.5-3.3,26.2-9,35.2h70.1v-80.3
		h-60.2L1221,450z M1427.4,394.1v1.9l-46.5,82c-3.9,6.8-8,11.5-12.1,14.1c-4.1,2.5-9.9,3.7-17.4,3.7h-16.1v-10.7h16.1
		c4.9,0,8.5-0.7,10.9-2c2.5-1.3,4.8-4,7.1-7.9l-49.5-79.2v-1.9h12.4l43.7,70.1l39.1-70.1H1427.4z M1607.1,485.2v31.3h-11.9v-20.6
		h-152.9V394.1h11.8v91h56.6v-91h11.9v91h56.6v-91h11.8v91h16.1V485.2z M1714.3,394.1v10.7h-72.9v34.7h69.8v10.7h-69.8v34.9h72.9
		v10.7h-84.7V394.1H1714.3z M1870.5,495.9h-11.6V409l-46.7,86.8h-12.4l-46.5-87.1v87.1h-11.6V394.1h16.4l48.1,88.4l47.9-88.4h16.4
		L1870.5,495.9L1870.5,495.9z"/>
	
		<ellipse transform="matrix(0.7071 -0.7071 0.7071 0.7071 778.319 2394.7417)" class="st0" cx="3279.9" cy="257.9" rx="113.3" ry="54.2"/>
	
		<ellipse transform="matrix(0.7071 -0.7071 0.7071 0.7071 583.2183 2313.9172)" class="st0" cx="3084.8" cy="453" rx="113.3" ry="54.2"/>
	
		<ellipse transform="matrix(0.7071 -0.7071 0.7071 0.7071 640.3555 2451.8765)" class="st0" cx="3279.9" cy="453" rx="54.2" ry="113.3"/>
	
		<ellipse transform="matrix(0.7071 -0.7071 0.7071 0.7071 721.1813 2256.7822)" class="st0" cx="3084.8" cy="257.8" rx="54.2" ry="113.3"/>
</g>
</svg>
