<?xml version="1.0" encoding="utf-8"?>
<!-- Generator: Adobe Illustrator 24.0.1, SVG Export Plug-In . SVG Version: 6.00 Build 0)  -->
<svg version="1.1" id="Слой_1" xmlns="http://www.w3.org/2000/svg" xmlns:xlink="http://www.w3.org/1999/xlink" x="0px" y="0px"
	 viewBox="0 0 3983 712" style="enable-background:new 0 0 3983 712;" xml:space="preserve">
<style type="text/css">
	.st0{fill:#0FBF00;}
</style>
<g>
	<path class="st0" d="M872.8,302.8v3.6l-44.5,98.1h-27l-44.5-98.1v-3.6h23.9l34.1,78.9l34.1-78.9H872.8z M976.9,302.8v20.5h-67.1
		v20.2h64v20.3h-64v20.3h67.1v20.5h-90.4V302.8H976.9z M1101.8,337.4c0,8.3-2.6,15-7.9,20.3c-5.2,5.3-12.6,8.6-22.2,9.9l29.6,33.3
		v3.6h-26.7l-31.6-36.4h-21.2v36.4h-23.3V302.8h64.5c12.1,0,21.6,2.9,28.4,8.8c6.9,5.8,10.4,13.8,10.4,24V337.4z M1078.1,335.2
		c0-3.8-1.3-6.7-4-8.7c-2.6-2.1-6.5-3.1-11.6-3.1h-40.6v25.4h40.6c5.1,0,8.9-1,11.6-2.9c2.7-2.1,4-5.1,4-9V335.2z M1174.2,302.8
		c19,0,33.4,4.2,43.1,12.7c9.8,8.4,14.7,20.8,14.7,37.4v1.7c0,16.5-4.9,29-14.6,37.4c-9.7,8.4-24.1,12.6-43.3,12.6h-50.7V302.8
		H1174.2z M1174.2,383.6c11.7,0,20.3-2.3,25.7-7c5.6-4.7,8.4-11.9,8.4-21.7v-2.2c0-9.7-2.8-17-8.5-21.7c-5.7-4.9-14.3-7.3-25.7-7.3
		h-27.3v59.9H1174.2z M1342,302.8v20.5h-67.1v20.2h64v20.3h-64v20.3h67.1v20.5h-90.4V302.8H1342z M1396.7,294.7
		c7.4,0,13.9,1.3,19.5,4c5.6,2.7,9.9,6.5,12.9,11.5c3.1,5,4.7,10.8,4.7,17.4v1.6c0,6.5-1.5,12.2-4.7,17.2c-3,4.9-7.3,8.6-12.9,11.3
		c-5.6,2.7-12.1,4-19.5,4c-7.5,0-14-1.3-19.7-4c-5.6-2.7-9.9-6.5-13-11.3c-3-5-4.5-10.7-4.5-17.2v-1.6c0-6.6,1.5-12.4,4.5-17.4
		c3.1-5,7.4-8.8,13-11.5C1382.7,296.1,1389.2,294.7,1396.7,294.7z M1424.3,327.3c0-7.6-2.4-13.6-7.3-17.8s-11.6-6.4-20.3-6.4
		c-8.7,0-15.5,2.2-20.5,6.5c-5,4.2-7.4,10.1-7.4,17.7v2c0,7.5,2.5,13.4,7.4,17.7c5,4.2,11.8,6.4,20.5,6.4c8.7,0,15.4-2.1,20.3-6.4
		c4.9-4.2,7.3-10.1,7.3-17.7V327.3z M1402.7,312.3c3.9,0,7,0.9,9.2,2.8c2.2,1.8,3.3,4.2,3.3,7.4v1.1c0,2.5-0.7,4.7-2.2,6.5
		c-1.3,1.8-3.3,2.9-5.9,3.6l7.9,9.6v0.8h-10.2l-7.8-9.8h-7.8v9.8h-9.4v-31.8H1402.7z M1389.2,327.5h11c1.7,0,2.9-0.4,3.7-1.1
		c0.9-0.7,1.4-1.7,1.4-2.9v-0.8c0-1.1-0.5-2-1.4-2.6c-0.8-0.7-2.1-1.1-3.7-1.1h-11V327.5z M1443.8,323.7v-20.9h102.8v20.9h-39.7
		v80.8h-23.4v-80.8H1443.8z M1651.3,302.8v20.5h-67.1v20.2h64v20.3h-64v20.3h67.1v20.5h-90.4V302.8H1651.3z M1729.7,406.4
		c-12.3,0-23.1-2.1-32.4-6.4c-9.3-4.2-16.5-10.2-21.5-18c-5-7.9-7.4-17-7.4-27.4v-1.7c0-10.4,2.5-19.5,7.4-27.3
		c5.1-7.9,12.3-13.9,21.5-18.1c9.3-4.3,20.1-6.5,32.4-6.5c11.4,0,21.6,1.9,30.6,5.6c9.1,3.7,16.2,8.9,21.2,15.5
		c5.2,6.6,7.8,14.1,7.8,22.3v1.2h-23.7v-1.2c0-4.2-1.6-8-4.7-11.3c-3-3.3-7.2-5.9-12.7-7.8c-5.4-1.9-11.6-2.8-18.6-2.8
		c-12.3,0-21.7,2.6-28.1,7.8c-6.3,5.2-9.5,12.6-9.5,22.3v2.3c0,9.8,3.2,17.3,9.5,22.3c6.3,5.1,15.7,7.6,28.2,7.6
		c10.8,0,19.5-2,26.1-5.9c6.5-4,9.8-9.3,9.8-15.8V362h23.7v1.1c0,8.3-2.6,15.7-7.8,22.3c-5.1,6.5-12.2,11.6-21.2,15.4
		C1751.3,404.5,1741.1,406.4,1729.7,406.4z M1831.8,302.8v40.5h56.3v-40.5h23.3v101.7h-23.3V364h-56.3v40.5h-23.3V302.8H1831.8z
		 M2017.6,292.4v122.5h-16.4V292.4H2017.6z M2200.4,352.9c5.5,2.1,9.7,4.9,12.6,8.5c2.9,3.6,4.3,7.8,4.3,12.6v1.9
		c0,9.7-4.7,17.3-14.1,22.6c-9.3,5.3-22.6,7.9-39.9,7.9c-18.7,0-33-3.5-42.8-10.5c-9.7-7.1-14.6-17.5-14.6-31.2v-1.4h15.7v1.4
		c0,9.4,3.4,16.3,10.1,20.8c6.8,4.3,17.5,6.5,31.9,6.5c12.9,0,22.5-1.3,28.7-4c6.2-2.7,9.3-6.9,9.3-12.6v-1.7c0-4.8-2.3-8.1-7-10.1
		c-4.6-2.1-12.6-3.1-23.7-3.1h-27.1v-13.8h26c10.3,0,17.8-1.1,22.3-3.3c4.6-2.2,7-5.7,7-10.5v-1.7c0-10.5-12.3-15.8-36.8-15.8
		c-13.6,0-23.8,2.3-30.4,6.8c-6.6,4.5-9.9,11.4-9.9,20.6v1.2h-15.5v-1.2c0-13.5,4.8-23.9,14.4-31c9.7-7.2,23.6-10.9,41.7-10.9
		c16.5,0,29.4,2.6,38.4,7.8c9.1,5.2,13.7,12.4,13.7,21.7v2C2214.9,341.6,2210.1,348.4,2200.4,352.9z M2335.5,402.2v2.3h-15.8
		l-12.1-25.7h-57.4l-12.1,25.7h-15.8v-2.3l48.1-99.4h17.1L2335.5,402.2z M2300.9,364.8l-22-46.7l-22,46.7H2300.9z M2442.7,302.8
		v13.8h-74.4v28.5h45.4c11.7,0,20.7,2.5,27.1,7.6c6.5,5,9.8,12,9.8,21.1v2c0,9-3.3,16-9.8,21.1c-6.5,5.1-15.6,7.6-27.1,7.6h-60.9
		V302.8H2442.7z M2413.6,390.7c6.6,0,11.8-1.3,15.7-4c3.9-2.7,5.9-6.3,5.9-10.9v-2c0-4.7-1.9-8.3-5.7-10.9c-3.8-2.7-9.1-4-15.8-4
		h-45.3v31.8H2413.6z M2528.3,406.4c-11.7,0-21.9-2.1-30.7-6.4c-8.8-4.2-15.6-10.2-20.3-18c-4.8-7.8-7.1-16.8-7.1-27.3v-2
		c0-10.4,2.4-19.5,7.1-27.3c4.8-7.9,11.5-13.9,20.3-18.1c8.8-4.2,19-6.4,30.7-6.4c11.7,0,21.9,2.1,30.6,6.4
		c8.8,4.2,15.5,10.3,20.3,18.1c4.8,7.8,7.1,16.8,7.1,27.3v2c0,10.4-2.4,19.5-7.1,27.3c-4.8,7.8-11.5,13.7-20.3,18
		C2550.2,404.3,2540,406.4,2528.3,406.4z M2528.3,392c13.3,0,23.7-3.3,31.2-9.8c7.4-6.5,11.2-15.6,11.2-27.1v-2.5
		c0-11.7-3.7-20.8-11.2-27.3c-7.4-6.6-17.8-9.9-31.2-9.9c-13.3,0-23.8,3.3-31.3,9.9c-7.4,6.5-11.2,15.6-11.2,27.3v2.5
		c0,11.6,3.7,20.6,11.2,27.1C2504.5,388.7,2515,392,2528.3,392z M2593.5,316.6v-13.8H2697v13.8h-44v87.9h-15.3v-87.9H2593.5z
		 M2802.9,402.2v2.3h-15.8l-12.1-25.7h-57.4l-12.1,25.7h-15.8v-2.3l48.1-99.4h17.1L2802.9,402.2z M2768.3,364.8l-22-46.7l-22,46.7
		H2768.3z M2927,406.4c-11.7,0-21.9-2.1-30.7-6.4c-8.8-4.2-15.6-10.2-20.3-18c-4.8-7.8-7.1-16.8-7.1-27.3v-2
		c0-10.4,2.4-19.5,7.1-27.3c4.8-7.9,11.5-13.9,20.3-18.1c8.8-4.2,19-6.4,30.7-6.4s21.9,2.1,30.6,6.4c8.8,4.2,15.6,10.3,20.3,18.1
		c4.8,7.8,7.1,16.8,7.1,27.3v2c0,10.4-2.4,19.5-7.1,27.3c-4.8,7.8-11.5,13.7-20.3,18C2948.9,404.3,2938.7,406.4,2927,406.4z
		 M2927,392c13.3,0,23.7-3.3,31.2-9.8c7.4-6.5,11.2-15.6,11.2-27.1v-2.5c0-11.7-3.7-20.8-11.2-27.3c-7.4-6.6-17.8-9.9-31.2-9.9
		c-13.3,0-23.8,3.3-31.3,9.9c-7.4,6.5-11.2,15.6-11.2,27.3v2.5c0,11.6,3.7,20.6,11.2,27.1C2903.2,388.7,2913.7,392,2927,392z
		 M3161.2,302.8v13.8h-74.4v28.5h45.4c11.7,0,20.7,2.5,27.1,7.6c6.5,5,9.8,12,9.8,21.1v2c0,9-3.3,16-9.8,21.1
		c-6.5,5.1-15.6,7.6-27.1,7.6h-60.9V302.8H3161.2z M3132,390.7c6.6,0,11.8-1.3,15.7-4c3.9-2.7,5.9-6.3,5.9-10.9v-2
		c0-4.7-1.9-8.3-5.7-10.9c-3.8-2.7-9.1-4-15.8-4h-45.3v31.8H3132z M3289.9,302.8v2.3l-44.5,79.9c-4.1,7.4-8.5,12.6-13,15.4
		c-4.4,2.8-10.5,4.2-18.1,4.2h-18.1v-13.8h18.1c4,0,7.1-0.5,9.2-1.5c2.2-1,4.1-2.9,5.9-5.7l-48.4-78.3v-2.3h16.1l40.6,66.2
		l36.3-66.2H3289.9z M3406.1,390.7v34.4h-15.5v-20.6H3297v20.6h-15.4v-34.4h13.2c6.1-9.4,9.3-21.2,9.6-35.5l0.9-52.4h84.8v87.9
		H3406.1z M3318.7,355.7c-0.3,14.3-3.1,25.9-8.4,35h64.5v-74.1h-55.2L3318.7,355.7z M3523.5,302.8v2.3L3479,385
		c-4.1,7.4-8.5,12.6-13,15.4c-4.4,2.8-10.5,4.2-18.1,4.2h-18.1v-13.8h18.1c4,0,7.1-0.5,9.1-1.5c2.2-1,4.1-2.9,5.9-5.7l-48.4-78.3
		v-2.3h16.1l40.6,66.2l36.3-66.2H3523.5z M3703.4,390.7v34.4h-15.5v-20.6h-151.3V302.8h15.5v87.9h52.3v-87.9h15.3v87.9h52.3v-87.9
		h15.5v87.9H3703.4z M3810.4,302.8v13.8h-71v30.1h67.9v13.8h-67.9v30.2h71v13.8h-86.5V302.8H3810.4z M3966.9,404.5h-15.3v-81.9
		l-42.2,81.9h-16l-42.2-82v82h-15.4V302.8h21.7l43.9,84.3l43.9-84.3h21.6V404.5z"/>
	
		<ellipse transform="matrix(0.7071 -0.7071 0.7071 0.7071 -50.248 396.0387)" class="st0" cx="452.9" cy="258.7" rx="113.3" ry="54.2"/>
	
		<ellipse transform="matrix(0.7071 -0.7071 0.7071 0.7071 -245.3603 315.2299)" class="st0" cx="257.8" cy="453.8" rx="113.3" ry="54.2"/>
	
		<ellipse transform="matrix(0.7071 -0.7071 0.7071 0.7071 -188.2148 453.1931)" class="st0" cx="452.9" cy="453.8" rx="54.2" ry="113.3"/>
	
		<ellipse transform="matrix(0.7071 -0.7071 0.7071 0.7071 -107.3932 258.0779)" class="st0" cx="257.8" cy="258.7" rx="54.2" ry="113.3"/>
</g>
</svg>
