<svg width="138" height="138" viewBox="0 0 138 138" fill="none" xmlns="http://www.w3.org/2000/svg">
<rect x="0.493652" y="0.726562" width="137.274" height="137.274" fill="white"/>
<path d="M72.3798 69.7989C75.2978 72.7145 82.6093 70.136 88.7106 64.0398C94.8118 57.9436 97.3924 50.6381 94.4744 47.7225C91.5564 44.8069 84.2449 47.3853 78.1436 53.4816C72.0424 59.5778 69.4618 66.8833 72.3798 69.7989Z" fill="black"/>
<path d="M45.4843 96.6739C48.4023 99.5895 55.7138 97.011 61.8151 90.9148C67.9163 84.8186 70.4969 77.5131 67.5789 74.5975C64.6609 71.6819 57.3494 74.2603 51.2481 80.3566C45.1468 86.4528 42.5663 93.7583 45.4843 96.6739Z" fill="black"/>
<path d="M72.3812 74.5992C69.4632 77.5148 72.0438 84.8203 78.145 90.9165C84.2463 97.0128 91.5578 99.5912 94.4758 96.6756C97.3938 93.76 94.8132 86.4545 88.712 80.3583C82.6107 74.2621 75.2992 71.6836 72.3812 74.5992Z" fill="black"/>
<path d="M45.4837 47.7242C42.5657 50.6398 45.1463 57.9453 51.2476 64.0415C57.3488 70.1378 64.6604 72.7162 67.5783 69.8006C70.4963 66.885 67.9158 59.5795 61.8145 53.4833C55.7133 47.3871 48.4017 44.8086 45.4837 47.7242Z" fill="black"/>
</svg>
