<svg width="139" height="138" viewBox="0 0 139 138" fill="none" xmlns="http://www.w3.org/2000/svg">
<rect x="0.987061" y="0.726562" width="137.274" height="137.274" fill="black"/>
<path d="M72.8729 69.7989C75.7909 72.7145 83.1025 70.136 89.2037 64.0398C95.305 57.9436 97.8855 50.6381 94.9676 47.7225C92.0496 44.8069 84.738 47.3853 78.6368 53.4816C72.5355 59.5778 69.955 66.8833 72.8729 69.7989Z" fill="white"/>
<path d="M45.9774 96.6739C48.8954 99.5895 56.207 97.011 62.3082 90.9148C68.4095 84.8186 70.99 77.5131 68.0721 74.5975C65.1541 71.6819 57.8425 74.2603 51.7413 80.3566C45.64 86.4528 43.0595 93.7583 45.9774 96.6739Z" fill="white"/>
<path d="M72.8744 74.5992C69.9564 77.5148 72.5369 84.8203 78.6382 90.9165C84.7394 97.0128 92.051 99.5912 94.969 96.6756C97.8869 93.76 95.3064 86.4545 89.2051 80.3583C83.1039 74.2621 75.7923 71.6836 72.8744 74.5992Z" fill="white"/>
<path d="M45.9769 47.7242C43.0589 50.6398 45.6395 57.9453 51.7407 64.0415C57.842 70.1378 65.1535 72.7162 68.0715 69.8006C70.9895 66.885 68.4089 59.5795 62.3077 53.4833C56.2064 47.3871 48.8949 44.8086 45.9769 47.7242Z" fill="white"/>
</svg>
