<svg width="138" height="138" viewBox="0 0 138 138" fill="none" xmlns="http://www.w3.org/2000/svg">
<rect y="0.726562" width="137.274" height="137.274" fill="#0FBE00"/>
<circle cx="69.4865" cy="70.2138" r="67.29" fill="#0FBE00"/>
<path d="M71.8861 69.8008C74.8041 72.7164 82.1157 70.138 88.2169 64.0417C94.3182 57.9455 96.8987 50.64 93.9807 47.7244C91.0628 44.8089 83.7512 47.3873 77.65 53.4835C71.5487 59.5797 68.9682 66.8852 71.8861 69.8008Z" fill="white"/>
<path d="M44.9906 96.6758C47.9086 99.5914 55.2201 97.013 61.3214 90.9167C67.4227 84.8205 70.0032 77.515 67.0852 74.5994C64.1673 71.6839 56.8557 74.2623 50.7545 80.3585C44.6532 86.4547 42.0726 93.7603 44.9906 96.6758Z" fill="white"/>
<path d="M71.8875 74.6012C68.9696 77.5167 71.5501 84.8222 77.6514 90.9185C83.7526 97.0147 91.0642 99.5931 93.9821 96.6776C96.9001 93.762 94.3196 86.4565 88.2183 80.3602C82.1171 74.264 74.8055 71.6856 71.8875 74.6012Z" fill="white"/>
<path d="M44.9901 47.7262C42.0721 50.6417 44.6527 57.9473 50.7539 64.0435C56.8552 70.1397 64.1667 72.7181 67.0847 69.8026C70.0027 66.887 67.4221 59.5815 61.3209 53.4852C55.2196 47.389 47.9081 44.8106 44.9901 47.7262Z" fill="white"/>
</svg>
