<svg width="3538" height="711" viewBox="0 0 3538 711" fill="none" xmlns="http://www.w3.org/2000/svg">
<path d="M117.683 214.139V217.705L73.1836 315.852H46.2049L1.70555 217.705V214.139H25.5833L59.6943 293.059L93.8053 214.139H117.683ZM221.804 214.139V234.605H154.667V254.762H218.703V275.073H154.667V295.385H221.804V315.852H131.41V214.139H221.804ZM346.721 248.715C346.721 256.984 344.085 263.755 338.813 269.026C333.645 274.298 326.254 277.606 316.641 278.95L346.256 312.285V315.852H319.587L287.957 279.415H266.715V315.852H243.458V214.139H307.958C320.052 214.139 329.51 217.085 336.333 222.977C343.258 228.765 346.721 236.776 346.721 247.009V248.715ZM322.998 246.544C322.998 242.72 321.654 239.825 318.967 237.861C316.383 235.794 312.507 234.76 307.338 234.76H266.715V260.189H307.338C312.403 260.189 316.279 259.207 318.967 257.243C321.654 255.175 322.998 252.178 322.998 248.25V246.544ZM419.077 214.139C438.097 214.139 452.465 218.377 462.181 226.853C472.001 235.226 476.911 247.681 476.911 264.22V265.925C476.911 282.464 472.053 294.92 462.336 303.293C452.62 311.665 438.2 315.852 419.077 315.852H368.376V214.139H419.077ZM419.077 294.92C430.758 294.92 439.337 292.594 444.815 287.943C450.397 283.291 453.188 276.055 453.188 266.236V264.065C453.188 254.348 450.346 247.113 444.66 242.358C438.975 237.5 430.396 235.071 418.922 235.071H391.633V294.92H419.077ZM586.868 214.139V234.605H519.731V254.762H583.767V275.073H519.731V295.385H586.868V315.852H496.474V214.139H586.868ZM641.547 206.076C648.99 206.076 655.502 207.42 661.084 210.107C666.665 212.795 670.955 216.62 673.953 221.581C677.054 226.543 678.604 232.331 678.604 238.947V240.497C678.604 247.009 677.054 252.746 673.953 257.708C670.955 262.566 666.665 266.339 661.084 269.026C655.502 271.714 648.99 273.058 641.547 273.058C634.105 273.058 627.541 271.714 621.856 269.026C616.274 266.339 611.933 262.566 608.832 257.708C605.834 252.746 604.335 247.009 604.335 240.497V238.947C604.335 232.331 605.834 226.543 608.832 221.581C611.933 216.62 616.274 212.795 621.856 210.107C627.541 207.42 634.105 206.076 641.547 206.076ZM669.146 238.637C669.146 230.988 666.717 225.044 661.859 220.806C657.001 216.568 650.23 214.449 641.547 214.449C632.864 214.449 626.042 216.62 621.081 220.961C616.119 225.199 613.638 231.091 613.638 238.637V240.652C613.638 248.198 616.119 254.09 621.081 258.328C626.042 262.566 632.864 264.685 641.547 264.685C650.23 264.685 657.001 262.566 661.859 258.328C666.717 254.09 669.146 248.198 669.146 240.652V238.637ZM647.594 223.597C651.522 223.597 654.571 224.527 656.742 226.388C658.913 228.145 659.998 230.626 659.998 233.83V234.915C659.998 237.396 659.275 239.567 657.827 241.428C656.484 243.185 654.52 244.374 651.936 244.994L659.843 254.607V255.382H649.61L641.857 245.614H634.105V255.382H624.647V223.597H647.594ZM634.105 238.792H645.113C646.767 238.792 648.008 238.43 648.835 237.706C649.765 236.983 650.23 236.001 650.23 234.76V233.985C650.23 232.848 649.765 231.97 648.835 231.349C648.008 230.626 646.767 230.264 645.113 230.264H634.105V238.792ZM688.691 235.071V214.139H791.489V235.071H751.796V315.852H728.384V235.071H688.691ZM896.211 214.139V234.605H829.074V254.762H893.11V275.073H829.074V295.385H896.211V315.852H805.817V214.139H896.211ZM974.613 317.712C962.312 317.712 951.51 315.593 942.207 311.355C932.904 307.117 925.72 301.122 920.655 293.369C915.694 285.513 913.213 276.365 913.213 265.925V264.22C913.213 253.78 915.694 244.684 920.655 236.931C925.72 229.075 932.904 223.028 942.207 218.79C951.51 214.449 962.312 212.278 974.613 212.278C985.983 212.278 996.165 214.139 1005.16 217.86C1014.25 221.581 1021.33 226.749 1026.4 233.365C1031.57 239.98 1034.15 247.423 1034.15 255.692V256.933H1010.43V255.692C1010.43 251.454 1008.88 247.681 1005.78 244.374C1002.78 241.066 998.542 238.482 993.064 236.621C987.689 234.76 981.487 233.83 974.458 233.83C962.157 233.83 952.802 236.414 946.394 241.583C940.088 246.751 936.936 254.193 936.936 263.91V266.236C936.936 276.055 940.088 283.498 946.394 288.563C952.699 293.628 962.105 296.16 974.613 296.16C985.466 296.16 994.149 294.196 1000.66 290.268C1007.17 286.237 1010.43 280.965 1010.43 274.453V273.368H1034.15V274.453C1034.15 282.723 1031.57 290.165 1026.4 296.78C1021.33 303.293 1014.25 308.409 1005.16 312.13C996.165 315.852 985.983 317.712 974.613 317.712ZM1076.64 214.139V254.607H1132.92V214.139H1156.18V315.852H1132.92V275.384H1076.64V315.852H1053.38V214.139H1076.64ZM102.488 444.375C108.587 446.339 113.238 449.182 116.443 452.903C119.647 456.521 121.249 460.862 121.249 465.927V467.943C121.249 477.452 116.598 484.791 107.295 489.96C97.9916 495.025 84.709 497.557 67.4468 497.557C48.9441 497.557 34.9379 494.146 25.4282 487.324C16.0218 480.398 11.3187 470.217 11.3187 456.779V455.228H23.2575V456.779C23.2575 467.012 26.8237 474.558 33.956 479.416C41.1916 484.171 52.4069 486.549 67.6018 486.549C81.6597 486.549 92.0997 484.998 98.9219 481.897C105.744 478.796 109.155 474.041 109.155 467.632V465.772C109.155 460.397 106.571 456.469 101.403 453.988C96.3377 451.507 88.1201 450.267 76.7498 450.267H48.3756V439.568H75.6644C86.4145 439.568 94.2187 438.276 99.077 435.692C104.039 433.108 106.519 429.077 106.519 423.598V421.738C106.519 409.54 93.3401 403.442 66.9816 403.442C38.1423 403.442 23.7227 413.417 23.7227 433.366V434.762H11.7838V433.366C11.7838 420.135 16.487 410.006 25.8934 402.977C35.4031 395.948 49.1509 392.433 67.1367 392.433C83.6753 392.433 96.3894 394.914 105.279 399.876C114.168 404.837 118.613 411.918 118.613 421.117V423.288C118.613 433.108 113.238 440.137 102.488 444.375ZM239.526 493.991V495.852H227.432L213.787 467.788H153.318L139.673 495.852H127.58V493.991L177.04 394.139H190.065L239.526 493.991ZM208.516 457.089L183.553 406.078L158.59 457.089H208.516ZM346.592 394.139V404.837H270.308V437.863H318.683C329.95 437.863 338.737 440.344 345.042 445.305C351.347 450.267 354.5 457.141 354.5 465.927V467.943C354.5 476.625 351.296 483.448 344.887 488.409C338.582 493.371 329.847 495.852 318.683 495.852H258.524V394.139H346.592ZM318.373 485.153C325.816 485.153 331.708 483.603 336.049 480.502C340.39 477.401 342.561 473.214 342.561 467.943V465.927C342.561 460.552 340.39 456.314 336.049 453.213C331.811 450.112 325.919 448.561 318.373 448.561H270.308V485.153H318.373ZM432.98 497.557C421.402 497.557 411.324 495.49 402.745 491.355C394.165 487.117 387.55 481.122 382.898 473.369C378.247 465.617 375.921 456.572 375.921 446.236V443.91C375.921 433.47 378.247 424.374 382.898 416.621C387.55 408.869 394.165 402.925 402.745 398.79C411.324 394.552 421.402 392.433 432.98 392.433C444.453 392.433 454.48 394.552 463.059 398.79C471.639 403.028 478.254 409.024 482.906 416.776C487.557 424.529 489.883 433.573 489.883 443.91V446.236C489.883 456.572 487.557 465.617 482.906 473.369C478.254 481.122 471.639 487.117 463.059 491.355C454.48 495.49 444.453 497.557 432.98 497.557ZM432.98 486.549C447.037 486.549 457.994 482.982 465.85 475.85C473.809 468.718 477.789 458.898 477.789 446.391V443.755C477.789 431.247 473.809 421.428 465.85 414.295C457.891 407.06 446.934 403.442 432.98 403.442C418.922 403.442 407.861 407.06 399.799 414.295C391.84 421.428 387.86 431.247 387.86 443.755V446.391C387.86 458.898 391.84 468.718 399.799 475.85C407.861 482.982 418.922 486.549 432.98 486.549ZM498.202 404.837V394.139H601.621V404.837H555.881V495.852H543.942V404.837H498.202ZM706.947 493.991V495.852H694.853L681.209 467.788H620.739L607.095 495.852H595.001V493.991L644.462 394.139H657.486L706.947 493.991ZM675.937 457.089L650.974 406.078L626.011 457.089H675.937ZM831.658 497.557C820.081 497.557 810.003 495.49 801.423 491.355C792.844 487.117 786.228 481.122 781.577 473.369C776.925 465.617 774.6 456.572 774.6 446.236V443.91C774.6 433.47 776.925 424.374 781.577 416.621C786.228 408.869 792.844 402.925 801.423 398.79C810.003 394.552 820.081 392.433 831.658 392.433C843.132 392.433 853.158 394.552 861.738 398.79C870.317 403.028 876.933 409.024 881.584 416.776C886.236 424.529 888.561 433.573 888.561 443.91V446.236C888.561 456.572 886.236 465.617 881.584 473.369C876.933 481.122 870.317 487.117 861.738 491.355C853.158 495.49 843.132 497.557 831.658 497.557ZM831.658 486.549C845.716 486.549 856.673 482.982 864.529 475.85C872.488 468.718 876.467 458.898 876.467 446.391V443.755C876.467 431.247 872.488 421.428 864.529 414.295C856.569 407.06 845.612 403.442 831.658 403.442C817.6 403.442 806.54 407.06 798.477 414.295C790.518 421.428 786.538 431.247 786.538 443.755V446.391C786.538 458.898 790.518 468.718 798.477 475.85C806.54 482.982 817.6 486.549 831.658 486.549ZM1065.06 394.139V404.837H988.777V437.863H1037.15C1048.42 437.863 1057.21 440.344 1063.51 445.305C1069.82 450.267 1072.97 457.141 1072.97 465.927V467.943C1072.97 476.625 1069.76 483.448 1063.36 488.409C1057.05 493.371 1048.32 495.852 1037.15 495.852H976.993V394.139H1065.06ZM1036.84 485.153C1044.28 485.153 1050.18 483.603 1054.52 480.502C1058.86 477.401 1061.03 473.214 1061.03 467.943V465.927C1061.03 460.552 1058.86 456.314 1054.52 453.213C1050.28 450.112 1044.39 448.561 1036.84 448.561H988.777V485.153H1036.84ZM1193.73 394.139V395.999L1147.22 478.021C1143.29 484.843 1139.26 489.546 1135.12 492.13C1130.99 494.611 1125.2 495.852 1117.76 495.852H1101.63V485.153H1117.76C1122.61 485.153 1126.23 484.481 1128.61 483.137C1131.09 481.794 1133.47 479.158 1135.74 475.23L1086.28 395.999V394.139H1098.69L1142.41 464.221L1181.48 394.139H1193.73ZM1309.86 485.153V516.473H1297.92V495.852H1198.68V516.473H1186.75V485.153H1199.92C1206.33 475.953 1209.69 464.118 1210 449.647L1210.93 394.139H1293.73V485.153H1309.86ZM1221.01 449.957C1220.7 464.428 1217.7 476.16 1212.02 485.153H1282.1V404.837H1221.94L1221.01 449.957ZM1427.37 394.139V395.999L1380.85 478.021C1376.92 484.843 1372.89 489.546 1368.76 492.13C1364.62 494.611 1358.83 495.852 1351.39 495.852H1335.27V485.153H1351.39C1356.25 485.153 1359.87 484.481 1362.25 483.137C1364.73 481.794 1367.1 479.158 1369.38 475.23L1319.92 395.999V394.139H1332.32L1376.04 464.221L1415.12 394.139H1427.37ZM1607.11 485.153V516.473H1595.17V495.852H1442.29V394.139H1454.08V485.153H1510.67V394.139H1522.61V485.153H1579.2V394.139H1590.99V485.153H1607.11ZM1714.25 394.139V404.837H1641.38V439.568H1711.15V450.267H1641.38V485.153H1714.25V495.852H1629.6V394.139H1714.25ZM1870.49 495.852H1858.86V409.024L1812.19 495.852H1799.79L1753.27 408.713V495.852H1741.64V394.139H1758.08L1806.14 482.517L1854.06 394.139H1870.49V495.852Z" fill="black"/>
<ellipse cx="3279.94" cy="257.827" rx="54.2016" ry="113.331" transform="rotate(45 3279.94 257.827)" fill="black"/>
<ellipse cx="3084.83" cy="452.943" rx="54.2016" ry="113.331" transform="rotate(45 3084.83 452.943)" fill="black"/>
<ellipse cx="3279.94" cy="452.945" rx="54.2016" ry="113.331" transform="rotate(135 3279.94 452.945)" fill="black"/>
<ellipse cx="3084.83" cy="257.826" rx="54.2016" ry="113.331" transform="rotate(135 3084.83 257.826)" fill="black"/>
</svg>
