<svg width="503" height="56" viewBox="0 0 503 56" fill="none" xmlns="http://www.w3.org/2000/svg">
<path fill-rule="evenodd" clip-rule="evenodd" d="M477.045 25.6086C480.201 28.7648 488.108 25.9738 494.706 19.3752C501.305 12.7765 504.095 4.86932 500.94 1.71404C497.784 -1.44123 489.877 1.34881 483.279 7.94744C476.68 14.5461 473.889 22.4533 477.045 25.6086ZM160.26 13.425V7.42498H156.79V22.5949H160.26V16.5949H168.65V22.5949H172.12V7.42498H168.65V13.425H160.26ZM140.22 21.925C141.744 22.5822 143.391 22.9025 145.05 22.8644C146.602 22.881 148.142 22.5881 149.58 22.0041C150.821 21.5353 151.915 20.7453 152.75 19.715C153.506 18.7707 153.912 17.5939 153.9 16.3849V16.2248H150.37V16.4445C150.363 16.9328 150.224 17.4113 149.966 17.8263C149.839 18.0324 149.685 18.2189 149.51 18.382C149.432 18.4543 149.349 18.5226 149.263 18.5861C149.152 18.6681 149.034 18.7414 148.91 18.8049C147.721 19.4455 146.379 19.7492 145.03 19.6847C143.54 19.7912 142.057 19.3937 140.82 18.5549C140.34 18.1496 139.962 17.6369 139.717 17.0578C139.472 16.4797 139.367 15.8517 139.41 15.2248V14.8449C139.387 14.4738 139.416 14.1027 139.494 13.7414C139.547 13.4924 139.624 13.2492 139.724 13.0138C139.968 12.4357 140.344 11.923 140.82 11.5148C142.042 10.6662 143.516 10.2609 145 10.3644C145.949 10.3478 146.895 10.4855 147.8 10.7746C148.518 10.9953 149.168 11.3947 149.69 11.9347C149.912 12.1564 150.089 12.4191 150.209 12.7092C150.329 12.9992 150.391 13.3107 150.39 13.6242V13.7844H153.92V13.6047C153.932 12.3947 153.526 11.2189 152.77 10.2746C151.942 9.23162 150.846 8.43279 149.6 7.96502C148.154 7.38494 146.607 7.09978 145.05 7.1242C143.386 7.09588 141.736 7.4367 140.22 8.1242C138.906 8.69158 137.787 9.63006 137 10.8244C136.242 12.0441 135.857 13.4592 135.89 14.8947V15.1349C135.858 16.5763 136.243 17.9963 137 19.2248C137.792 20.4152 138.91 21.3517 140.22 21.925ZM133.36 10.4748V7.42498H119.88V22.5344H133.36V19.4748H123.36V16.4748H132.91V13.4748H123.36V10.4748H133.36ZM102.42 7.42498V10.5441L108.34 10.5949V22.5949H111.83V10.5441H117.75V7.42498H102.42ZM95.92 11.1047H94.28V9.83416H95.92C96.1199 9.81853 96.3188 9.87518 96.48 9.99432C96.5464 10.0353 96.6008 10.0929 96.6376 10.1613C96.6746 10.2297 96.6926 10.3068 96.69 10.3849V10.5041C96.6909 10.5441 96.6874 10.5832 96.6797 10.6222C96.671 10.6662 96.6569 10.7092 96.6375 10.7492C96.601 10.8263 96.5471 10.8928 96.48 10.9445C96.3797 11.0148 96.2667 11.0637 96.1482 11.0881C96.0737 11.1027 95.997 11.1086 95.92 11.1047ZM96.8333 8.86053C96.6524 8.82635 96.4662 8.81756 96.28 8.83416H92.87V13.5744H94.28V12.1144H95.44L96.59 13.6047H98.12V13.4943L96.94 12.0549C97.2869 11.9875 97.5988 11.8 97.82 11.5246C98.0383 11.2375 98.1512 10.8849 98.14 10.5246V10.3342C98.1459 10.2287 98.1395 10.1232 98.121 10.0197C98.1113 9.966 98.0984 9.91326 98.0823 9.86053C98.0679 9.81365 98.0508 9.76775 98.0312 9.72283C97.9755 9.59393 97.9001 9.47478 97.8082 9.37029C97.7628 9.31853 97.7133 9.26971 97.66 9.22478C97.5316 9.12908 97.3931 9.04998 97.2478 8.98748C97.1728 8.95525 97.0959 8.92791 97.0178 8.90447C96.957 8.88689 96.8954 8.87225 96.8333 8.86053ZM99.2582 9.62811C99.4449 10.0861 99.5276 10.5803 99.5 11.0744L99.51 11.3547C99.524 11.6242 99.5049 11.8937 99.4539 12.1584C99.4117 12.3771 99.3477 12.591 99.2624 12.7971C99.0739 13.2541 98.7861 13.6633 98.42 13.9943C97.5762 14.6838 96.5087 15.0402 95.42 14.9943C94.3327 15.0295 93.2687 14.675 92.42 13.9943C92.0474 13.6672 91.7539 13.259 91.5616 12.8019C91.3694 12.3449 91.2833 11.8498 91.31 11.3547V11.0549C91.2841 10.5607 91.3706 10.0676 91.5629 9.61248C91.653 9.39861 91.7651 9.19549 91.8972 9.00701C92.047 8.79314 92.2224 8.59783 92.42 8.42498C93.2648 7.7365 94.3315 7.38103 95.42 7.42498C96.5093 7.3742 97.5785 7.73064 98.42 8.42498C98.7851 8.75896 99.0714 9.1701 99.2582 9.62811ZM98.3 6.82439C97.3879 6.4074 96.3929 6.20135 95.39 6.22478C94.3807 6.2033 93.3795 6.40838 92.46 6.82439C91.6588 7.19451 90.9817 7.78826 90.51 8.53436C90.0555 9.32146 89.8239 10.216 89.84 11.1242V11.3547C89.8276 12.256 90.0591 13.1437 90.51 13.925C90.989 14.6564 91.6649 15.2394 92.46 15.6047C93.3772 16.0295 94.3795 16.2375 95.39 16.215C96.3941 16.2385 97.3901 16.0304 98.3 15.6047C99.0922 15.2472 99.7604 14.6623 100.22 13.925C100.692 13.1515 100.935 12.2599 100.92 11.3547V11.1242C100.938 10.2121 100.695 9.31365 100.22 8.53436C99.7679 7.78338 99.0984 7.1867 98.3 6.82439ZM87.24 10.4748V7.42498H73.76V22.5344H87.23V19.4748H77.23V16.4748H86.79V13.4748H77.24V10.4748H87.24ZM66.08 18.4748C64.9549 19.2433 63.5973 19.5969 62.24 19.4748H58.13V10.5441H62.2C63.5555 10.4494 64.9012 10.8351 66 11.6349C66.4493 12.0402 66.8007 12.5431 67.0276 13.1037C67.2545 13.6652 67.3511 14.2707 67.31 14.8742V15.2248C67.3626 15.8234 67.2793 16.4269 67.0663 16.9904C66.8534 17.5529 66.5162 18.0597 66.08 18.4748ZM68.67 9.3742C67.2233 8.1076 65.08 7.47478 62.24 7.47478L54.67 7.42498V22.6447H62.24C65.1 22.6447 67.24 22.0148 68.69 20.7648C69.4463 20.0578 70.0347 19.1906 70.4119 18.2267C70.7891 17.2629 70.9457 16.2267 70.87 15.1945V14.9445C70.9439 13.9103 70.7845 12.8732 70.4037 11.9094C70.0229 10.9455 69.4305 10.0793 68.67 9.3742ZM47.7639 11.5031C47.8687 11.7287 47.9155 11.9767 47.9 12.2248V12.5148C47.9142 12.7697 47.8672 13.0246 47.7628 13.257C47.6584 13.4904 47.4997 13.6955 47.3 13.8547C46.7831 14.1779 46.1784 14.3312 45.57 14.2941H39.51V10.4748H45.57C46.182 10.4289 46.7914 10.591 47.3 10.9347C47.4996 11.0822 47.6591 11.2775 47.7639 11.5031ZM51.4145 13.1467C51.4372 12.9513 51.4458 12.7531 51.44 12.5549V12.3244C51.4679 11.6457 51.339 10.9699 51.0632 10.3488C51.0193 10.2492 50.9718 10.1525 50.9209 10.0568C50.8815 9.98357 50.8401 9.91131 50.7968 9.84002C50.7 9.68182 50.5931 9.52947 50.4771 9.38396C50.2908 9.15057 50.0809 8.9367 49.85 8.74432C48.6476 7.80389 47.1437 7.33514 45.62 7.42498H36V22.6242H39.51V17.1847H42.71L47.42 22.6242H51.42V22.0842L47 17.0842C48.2272 16.9533 49.3749 16.4142 50.26 15.5549C50.5417 15.2697 50.7794 14.9445 50.9662 14.591C51 14.5265 51.0321 14.4621 51.0626 14.3967C51.0963 14.3244 51.1278 14.2502 51.1572 14.175C51.2874 13.8439 51.3737 13.4982 51.4145 13.1467ZM32.81 10.4748V7.42498H19.34V22.5344H32.8V19.4748H22.8V16.4748H32.36V13.4748H22.81V10.4748H32.81ZM17.29 7.95428V7.42498H13.73L8.65002 19.2248L3.56 7.42498H0V7.95428L6.65997 22.5949H10.66L17.29 7.95428ZM1.39001 41.6545V42.0549C1.39001 46.715 4.78003 49.6945 10.17 49.7648C15.02 49.7648 18.62 47.1349 18.62 43.5744V43.3449H16.29V43.5744C16.29 45.8849 13.77 47.5744 10.17 47.5744C6.03003 47.5744 3.71997 45.6047 3.71997 42.0949V41.6545C3.71997 38.1545 6.03003 36.1545 10.17 36.1545C13.72 36.1545 16.29 37.8947 16.29 40.2248V40.4142H18.62V40.2043C18.62 36.6447 15.02 33.9846 10.17 33.9846C4.78003 33.9846 1.39001 36.9943 1.39001 41.6545ZM36.53 49.4045V49.0549L29.37 34.2248H26.82L19.66 49.0744V49.425H22L23.82 45.5646H32.37L34.17 49.4045H36.53ZM28.09 36.4846L31.38 43.4846H24.81L28.09 36.4846ZM53.89 49.0744L48.89 43.4846C52.05 43.3244 54 41.6144 53.95 39.0744V38.7746C53.95 35.9543 51.87 34.2248 48.45 34.2248H39.11V49.425H41.42V43.4846H45.91L51.24 49.425H53.89V49.0744ZM48.4 36.3244C50.43 36.3244 51.61 37.2043 51.61 38.7443V39.0246C51.61 40.5549 50.4 41.4543 48.4 41.4543H41.4V36.3244H48.4ZM60.21 34.2248H57.92V49.425H60.21V34.2248ZM79.31 49.425V34.2248H77.07V46.2248L66.91 34.2248H64.64V49.425H66.88V37.425L77.05 49.425H79.31ZM97.87 39.4748V39.6047L100.2 39.6447V39.5148C100.2 36.2346 96.81 33.9846 91.81 33.9846C86.41 33.9846 82.92 37.0344 82.92 41.6545V42.0549C82.92 46.7648 86.31 49.6945 91.79 49.6945C94.056 49.8156 96.2812 49.0558 98 47.5744L98.12 49.4543H100.2V41.4543H89.95V43.5344H97.95V45.2443C97.1514 46.0265 96.1978 46.633 95.1505 47.0236C94.1033 47.4152 92.9858 47.5822 91.87 47.5148C87.65 47.5148 85.29 45.5646 85.29 42.0344V41.5949C85.29 38.1545 87.74 36.0949 91.87 36.0949C95.21 36.0949 97.87 37.5744 97.87 39.4748ZM126.11 34.2248H113.11V49.425H115.42V43.0646H125.68V41.0148H115.42V36.3244H126.11V34.2248ZM128.73 41.6642V41.965V42.0041C128.73 46.6945 132.12 49.6545 137.39 49.6545C142.66 49.6545 146.04 46.6545 146.04 41.965V41.6642C146.04 36.9445 142.68 33.9445 137.39 33.9445C132.1 33.9445 128.73 36.9748 128.73 41.6642ZM143.73 41.5949V41.965L143.7 42.0549C143.7 45.4943 141.41 47.465 137.42 47.465C133.43 47.465 131.09 45.4045 131.09 41.965V41.5949C131.09 38.1242 133.44 36.0441 137.42 36.0441C141.4 36.0441 143.73 38.1242 143.73 41.5949ZM159.515 43.4787L164.44 48.9846V49.3342H161.81L156.47 43.3947H152V49.425H149.69V34.2248H159C162.42 34.2248 164.5 35.9543 164.5 38.7746V39.0744C164.47 41.5861 162.622 43.2863 159.515 43.4787ZM158.96 36.2346C160.99 36.2346 162.17 37.1144 162.17 38.6545V38.9347C162.17 40.465 160.96 41.3644 158.96 41.3644H151.96V36.2346H158.96ZM173.86 36.2346H180.42V49.425H182.71V36.3244H189.27V34.2248H173.86V36.2346ZM194 34.2248H191.64L191.69 49.425H194V42.8849H204V49.425H206.31V34.2248H204V40.7648H194V34.2248ZM223.45 34.2248H210.56V49.425H223.45V47.3644H212.87V42.8644H223V40.8049H212.87V36.3244H223.45V34.2248ZM249.51 34.2248H236.51V49.425H238.82V43.0646H249.07V41.0148H238.82V36.3244H249.51V34.2248ZM252.51 34.2248V42.9142L252.54 42.9543C252.54 46.9943 255.42 49.6545 259.79 49.6545C264.16 49.6545 267.07 46.9748 267.07 42.9142V34.2248H264.76V42.9543C264.76 45.7746 262.85 47.5148 259.76 47.5148C256.67 47.5148 254.82 45.7746 254.82 42.9543V34.2248H252.51ZM269.24 36.3244H275.8V49.425H278.09V36.3244H284.65V34.2248H269.24V36.3244ZM286.8 34.2248V42.9543H286.82C286.82 46.9943 289.72 49.6545 294.09 49.6545C298.46 49.6545 301.37 46.9748 301.37 42.9142V34.2248H299.06V42.9543C299.06 45.7746 297.16 47.5148 294.06 47.5148C290.96 47.5148 289.11 45.7746 289.11 42.9543V34.2248H286.8ZM320.13 49.0744L315.15 43.4846C318.31 43.3244 320.21 41.6144 320.21 39.0744V38.7746C320.21 35.9543 318.13 34.2248 314.71 34.2248H305.38V49.425H307.69V43.4846H312.17L317.5 49.425H320.13V49.0744ZM314.64 36.3244C316.68 36.3244 317.85 37.2043 317.85 38.7443V39.0246C317.85 40.5549 316.64 41.4543 314.64 41.4543H307.64V36.3244H314.64ZM336.89 34.2248H324V49.425H336.89V47.3644H326.31V42.8644H336.43V40.8049H326.31V36.3244H336.89V34.2248ZM465.618 48.464C459.02 55.0627 451.113 57.8537 447.957 54.6974C444.801 51.5422 447.592 43.6349 454.19 37.0363C460.789 30.4377 468.696 27.6476 471.852 30.8029C475.007 33.9582 472.217 41.8654 465.618 48.464ZM477.045 30.8029C473.889 33.9582 476.68 41.8654 483.278 48.464C489.877 55.0627 497.784 57.8527 500.94 54.6974C504.095 51.5422 501.305 43.6349 494.706 37.0363C488.108 30.4377 480.201 27.6476 477.045 30.8029ZM454.19 19.3752C447.592 12.7765 444.801 4.86932 447.957 1.71404C451.113 -1.44123 459.02 1.34881 465.618 7.94744C472.216 14.5461 475.007 22.4533 471.852 25.6086C468.696 28.7638 460.789 25.9738 454.19 19.3752Z" fill="black"/>
</svg>
