<svg width="624" height="56" viewBox="0 0 624 56" fill="none" xmlns="http://www.w3.org/2000/svg">
<path fill-rule="evenodd" clip-rule="evenodd" d="M36.6019 7.52618C43.1919 0.936334 51.1019 -1.84394 54.2519 1.30645C57.4019 4.45587 54.6119 12.3065 48.022 18.9363C41.4319 25.5662 33.5219 28.3162 30.3719 25.1658C27.2219 22.0164 30.0019 14.116 36.6019 7.52618ZM1.30193 54.2156C4.45195 57.366 12.3619 54.576 19.0019 48.0057C25.642 41.4363 28.3819 33.5262 25.2319 30.3758C22.0819 27.2264 14.1219 30.0057 7.53191 36.576C0.941942 43.1463 -1.8481 51.0662 1.30193 54.2156ZM30.3719 30.3563C27.2219 33.5057 30.0019 41.3963 36.6019 48.0057C43.202 54.616 51.1019 57.3865 54.2519 54.2361C57.4019 51.0857 54.6219 43.1658 48.0019 36.576C41.3819 29.9861 33.5219 27.2059 30.3719 30.3563ZM1.30193 1.30645C-1.85805 4.45587 0.931933 12.3065 7.53191 18.9363C14.1319 25.5662 22.0019 28.3162 25.1819 25.1658C28.3619 22.0164 25.5419 14.1658 18.952 7.52618C12.3619 0.88653 4.45195 -1.84394 1.30193 1.30645ZM275.452 18.2557V36.4959H273.002V18.2557H275.452ZM247.752 19.8065V25.8065H256.142V19.8065H259.612V34.9461H256.142V28.9461H247.752V34.9461H244.292V19.8065H247.752ZM232.552 35.2264C230.893 35.2586 229.245 34.9344 227.722 34.2762C226.416 33.7107 225.302 32.7801 224.512 31.5965C223.757 30.3709 223.371 28.9549 223.402 27.5164V27.2557C223.351 25.824 223.737 24.41 224.508 23.2029C225.28 21.9949 226.401 21.0516 227.722 20.4959C229.239 19.8113 230.888 19.4695 232.552 19.4959C234.108 19.4715 235.654 19.7537 237.102 20.326C238.344 20.8025 239.438 21.5994 240.272 22.6365C241.035 23.5916 241.442 24.783 241.422 26.0057V26.1961H237.892V26.0057C237.892 25.3768 237.644 24.7732 237.202 24.326C236.678 23.7859 236.024 23.3895 235.302 23.1766C234.409 22.8816 233.472 22.7391 232.532 22.7557C231.048 22.6522 229.574 23.0584 228.352 23.9061C227.876 24.3143 227.5 24.8279 227.256 25.4051C227.12 25.7254 227.027 26.0613 226.977 26.4031C226.937 26.6775 226.925 26.9568 226.942 27.2361V27.576C226.899 28.2029 227.004 28.8309 227.249 29.41C227.494 29.9881 227.872 30.5008 228.352 30.9061C229.585 31.744 231.065 32.1414 232.552 32.0359C233.901 32.1023 235.243 31.7977 236.432 31.1561C236.865 30.9334 237.23 30.5975 237.487 30.1834C237.744 29.7693 237.884 29.2938 237.892 28.8065V28.6463H241.422V28.8065C241.432 30.0125 241.026 31.1844 240.272 32.1258C239.434 33.1541 238.341 33.9432 237.102 34.4158C235.653 34.9813 234.107 35.2566 232.552 35.2264ZM220.872 19.8065V22.8563H210.872V25.8563H220.412V28.8563H210.872V31.8563H220.872V34.8563H207.402V19.8065H220.872ZM190.002 22.9158V19.8065H205.322V22.9158H199.402V34.9158H195.912V22.9158H190.002ZM181.862 23.4764H183.512C183.708 23.4871 183.902 23.4305 184.062 23.3162C184.097 23.2889 184.129 23.2576 184.156 23.2234C184.181 23.1922 184.202 23.158 184.219 23.1209C184.235 23.0887 184.247 23.0555 184.256 23.0203C184.268 22.9734 184.273 22.9246 184.272 22.8758V22.7557C184.275 22.6785 184.256 22.6014 184.22 22.533C184.183 22.4647 184.128 22.407 184.062 22.366C183.978 22.3025 183.883 22.2557 183.783 22.2293C183.695 22.2059 183.604 22.1981 183.512 22.2059H181.862V23.4764ZM183.862 21.2156C184.354 21.1795 184.841 21.325 185.232 21.6258C185.393 21.7615 185.52 21.9315 185.603 22.1248C185.687 22.3172 185.724 22.5262 185.712 22.7361V22.8963C185.728 23.2566 185.615 23.6121 185.392 23.8963C185.171 24.1717 184.859 24.3592 184.512 24.4266L185.692 25.8563V25.9764H184.172L183.002 24.4861H181.842V25.9461H180.442V21.2156H183.862ZM187.002 23.4559C187.042 22.9666 186.973 22.4744 186.8 22.0145C186.627 21.5545 186.355 21.1385 186.002 20.7957C185.151 20.1248 184.084 19.7869 183.002 19.8465C181.914 19.8074 180.849 20.1629 180.002 20.8465C179.632 21.1756 179.341 21.5838 179.151 22.0408C178.961 22.4979 178.875 22.992 178.902 23.4861V23.7859C178.877 24.2791 178.963 24.7713 179.153 25.2264C179.344 25.6815 179.634 26.0877 180.002 26.4158C180.859 27.075 181.922 27.408 183.002 27.3563C184.083 27.4178 185.15 27.0838 186.002 26.4158C186.357 26.076 186.631 25.66 186.804 25.2C186.977 24.7391 187.045 24.2459 187.002 23.7557V23.4559ZM182.905 18.6063C183.9 18.5877 184.887 18.7918 185.792 19.2059C186.59 19.5682 187.26 20.1648 187.712 20.9158C188.186 21.6922 188.429 22.5867 188.412 23.4959V23.7264C188.428 24.6287 188.185 25.5174 187.712 26.2859C187.271 27.034 186.616 27.6336 185.832 28.0057C184.92 28.4236 183.925 28.6287 182.922 28.6063C181.916 28.6248 180.919 28.4197 180.002 28.0057C179.207 27.6395 178.534 27.0535 178.062 26.3162C177.603 25.5428 177.37 24.6551 177.392 23.7557V23.5262C177.369 22.6199 177.601 21.7264 178.062 20.9461C178.525 20.1893 179.199 19.5848 180.002 19.2059C180.913 18.7938 181.906 18.5906 182.905 18.6063ZM174.742 19.8065V22.8563H164.742V25.8563H174.292V28.8563H164.742V31.8563H174.742V34.8563H161.312V19.8065H174.742ZM149.742 31.8065C151.096 31.9275 152.45 31.574 153.572 30.8065C153.749 30.6404 153.91 30.4588 154.053 30.2645C154.265 29.9773 154.438 29.6629 154.567 29.3289C154.783 28.7684 154.87 28.1658 154.822 27.5662V27.2459C154.873 26.6482 154.789 26.0467 154.576 25.4861C154.363 24.9256 154.027 24.4197 153.592 24.0057C152.48 23.201 151.12 22.8152 149.752 22.9158H145.692V31.826L149.742 31.8065ZM149.742 19.8065C152.575 19.8065 154.715 20.4363 156.162 21.6961C156.92 22.4002 157.51 23.2645 157.889 24.2273C158.268 25.1893 158.426 26.2244 158.352 27.2557V27.5164C158.427 28.5457 158.272 29.5799 157.896 30.5418C157.521 31.5037 156.935 32.3699 156.182 33.076C154.735 34.3299 152.589 34.9529 149.742 34.9461H142.182V19.8065H149.742ZM135.422 24.6258C135.428 24.532 135.425 24.4383 135.413 24.3455C135.394 24.1932 135.351 24.0447 135.286 23.9051C135.181 23.6795 135.022 23.4842 134.822 23.3357C134.313 22.993 133.704 22.8309 133.092 22.8758H127.032V26.6561H133.092C133.699 26.6961 134.304 26.5457 134.822 26.2264C134.886 26.1756 134.945 26.1199 135 26.0604C135.038 26.0193 135.074 25.9754 135.108 25.9305C135.177 25.8367 135.237 25.7361 135.285 25.6287C135.389 25.3963 135.436 25.1414 135.422 24.8865V24.6258ZM139.002 25.0057C139.02 25.5594 138.926 26.1102 138.725 26.6258C138.523 27.1414 138.22 27.6111 137.832 28.0057C136.924 28.8543 135.759 29.3748 134.522 29.4861L138.942 34.4861V35.0164H134.942L130.232 29.5965H127.062V35.0164H123.602V19.8065H133.212C134.734 19.7186 136.236 20.1834 137.442 21.116C137.958 21.5535 138.367 22.1043 138.638 22.7254C138.908 23.3455 139.033 24.0203 139.002 24.6961V25.0057ZM120.382 19.8065V22.8563H110.382V25.8563H119.922V28.8563H110.382V31.8563H120.382V34.8563H106.912V19.8065H120.382ZM104.872 19.8065V20.3357L98.2419 34.9461H94.2419L87.5919 20.3357V19.8065H91.142L96.2319 31.5565L101.312 19.8065H104.872ZM288.512 27.1961V27.5857C288.512 32.2557 291.912 35.2361 297.292 35.1961C302.142 35.1961 305.752 32.5565 305.752 29.0057V28.8065H303.412V29.0857C303.412 31.3963 300.892 33.0857 297.292 33.0857C293.162 33.0857 290.842 31.1258 290.842 27.6063V27.1658C290.842 23.6766 293.162 21.6766 297.292 21.6766C300.852 21.6766 303.412 23.4061 303.412 25.7361V25.9461H305.752V25.7361C305.752 22.1766 302.142 19.5262 297.292 19.5262C291.912 19.5262 288.512 22.5262 288.512 27.1961ZM323.652 35.0057V34.5857L316.542 19.7957H314.002L306.792 34.6063V35.0057H309.142L310.942 31.1766H319.492L321.292 35.0057H323.652ZM315.222 22.0057L318.502 29.0057H311.942L315.222 22.0057ZM341.002 34.5965L336.002 29.0057C339.182 28.8563 341.072 27.1463 341.042 24.6561V24.3563C341.042 21.5359 338.962 19.7957 335.542 19.7957H326.212V35.0057H328.522V29.0057H333.002L338.372 35.0057H341.002V34.5965ZM335.512 21.8465C337.552 21.8465 338.732 22.7264 338.732 24.2762V24.576C338.732 26.1063 337.512 27.0057 335.512 27.0057H328.512V21.8465H335.512ZM347.322 19.7859H345.032L345.002 35.0057H347.322V19.7859ZM366.432 35.0057V19.7859L364.202 19.7957V31.7264L354.002 19.7957H351.762V35.0057H354.002V23.0057L364.162 35.0057H366.432ZM385.002 25.0057V25.1863L387.302 25.2361V25.0965C387.302 21.8162 383.922 19.576 378.922 19.576C373.512 19.576 370.022 22.6258 370.022 27.2459V27.6365C370.022 32.3465 373.422 35.2859 378.892 35.2859C381.162 35.4041 383.391 34.6414 385.112 33.1561L385.222 35.0057H387.302V27.0057H377.002V29.0662H385.002V30.8162C384.209 31.5809 383.267 32.1736 382.235 32.5574C381.202 32.9412 380.102 33.1072 379.002 33.0457C374.772 33.0457 372.412 31.1063 372.412 27.5662V27.1258C372.412 23.6365 374.862 21.6365 379.002 21.6365C382.342 21.6365 385.002 23.1063 385.002 25.0057ZM413.252 19.7957H400.252L400.242 35.0057H402.552V28.6063H412.802V26.5457H402.552V21.8563H413.252V19.7957ZM415.862 27.2361V27.5359H415.852C415.852 32.2264 419.262 35.2361 424.532 35.2361C429.802 35.2361 433.172 32.2264 433.172 27.5359V27.2361C433.172 22.5262 429.822 19.5262 424.532 19.5262C419.242 19.5262 415.862 22.5457 415.862 27.2361ZM430.862 27.1658V27.5359L430.832 27.5857C430.832 31.0057 428.552 33.0359 424.552 33.0359C420.552 33.0359 418.222 30.9764 418.222 27.5359V27.1658C418.222 23.6961 420.582 21.6258 424.552 21.6258C428.522 21.6258 430.862 23.6961 430.862 27.1658ZM451.542 34.5965L446.542 29.0057C449.702 28.8563 451.592 27.1463 451.592 24.6561V24.3563C451.592 21.5359 449.522 19.7957 446.102 19.7957H436.762V35.0057H439.072V29.0057H443.562L448.902 35.0057H451.542V34.5965ZM446.052 21.8465C448.082 21.8465 449.262 22.7264 449.262 24.2762V24.576C449.262 26.1063 448.052 27.0057 446.052 27.0057H439.052V21.8465H446.052ZM461.002 21.8465H467.512V35.0057H469.802V21.8563H476.412V19.7957H461.002V21.8465ZM481.082 19.7859H478.762V35.0057H481.082V28.4158H491.082V35.0057H493.392V19.7957H491.082V26.326H481.082V19.7859ZM510.582 19.7859H497.682V35.0057H510.582V32.8865H500.002V28.3865H510.112V26.326H500.002V21.8465H510.582V19.7859ZM536.632 19.7859H523.632V35.0057H525.942V28.6063H536.202V26.5359H525.942V21.8465H536.632V19.7859ZM539.632 19.7957V28.4764L539.662 28.4861C539.662 32.5262 542.632 35.2361 546.992 35.2361C551.352 35.2361 554.262 32.5565 554.262 28.4861V19.7957H551.952V28.5359C551.952 31.3563 550.052 33.0857 546.952 33.0857C543.852 33.0857 542.002 31.3563 542.002 28.5359V19.7957H539.632ZM556.342 21.8465H562.902V35.0057H565.192V21.8563H571.752V19.7957H556.342V21.8465ZM573.902 19.7957V28.4764L574.002 28.4861C574.002 32.5262 576.812 35.2361 581.182 35.2361C585.552 35.2361 588.462 32.5565 588.462 28.4861V19.7957H586.152V28.5359C586.152 31.3563 584.242 33.0857 581.152 33.0857C578.062 33.0857 576.212 31.3563 576.212 28.5359V19.7957H573.902ZM607.222 34.5965L602.222 29.0057H602.272C605.442 28.8563 607.332 27.1463 607.332 24.6561V24.3563C607.332 21.5359 605.252 19.7957 601.832 19.7957H592.502V35.0057H594.812V29.0057H599.292L604.592 35.0057H607.222V34.5965ZM601.792 21.8563C603.822 21.8563 605.002 22.7361 605.002 24.2859V24.576C605.002 26.1063 603.792 27.0057 601.792 27.0057H594.792V21.8563H601.792ZM624.002 19.7957H611.122V35.0057H624.002V32.8963H613.432V28.3963H623.552V26.3357H613.432V21.8563H624.002V19.7957Z" fill="black"/>
</svg>
