<svg width="1169" height="181" viewBox="0 0 1169 181" fill="none" xmlns="http://www.w3.org/2000/svg">
<path d="M117.686 39.8226V43.3889L73.1855 141.538H46.2061L1.70559 43.3889V39.8226H25.5839L59.6958 118.745L93.8077 39.8226H117.686ZM221.81 39.8226V60.2898H154.671V80.4468H218.709V100.759H154.671V121.071H221.81V141.538H131.413V39.8226H221.81ZM346.73 74.3997C346.73 82.6692 344.094 89.4399 338.822 94.7118C333.654 99.9836 326.263 103.291 316.649 104.635L346.265 137.972V141.538H319.595L287.964 105.1H266.722V141.538H243.464V39.8226H307.966C320.061 39.8226 329.519 42.7687 336.341 48.6607C343.267 54.4494 346.73 62.4605 346.73 72.6941V74.3997ZM323.007 72.2289C323.007 68.4043 321.663 65.5099 318.975 63.5459C316.391 61.4785 312.515 60.4448 307.346 60.4448H266.722V85.8737H307.346C312.411 85.8737 316.288 84.8917 318.975 82.9277C321.663 80.8603 323.007 77.8626 323.007 73.9345V72.2289ZM419.088 39.8226C438.108 39.8226 452.476 44.0608 462.193 52.5371C472.013 60.91 476.923 73.366 476.923 89.9051V91.6107C476.923 108.15 472.065 120.606 462.348 128.979C452.631 137.352 438.211 141.538 419.088 141.538H368.385V39.8226H419.088ZM419.088 120.606C430.769 120.606 439.348 118.28 444.827 113.628C450.409 108.977 453.2 101.741 453.2 91.9208V89.75C453.2 80.0333 450.357 72.7975 444.672 68.0425C438.987 63.1841 430.407 60.7549 418.933 60.7549H391.643V120.606H419.088ZM586.883 39.8226V60.2898H519.745V80.4468H583.782V100.759H519.745V121.071H586.883V141.538H496.487V39.8226H586.883ZM641.564 31.7598C649.006 31.7598 655.519 33.1036 661.101 35.7912C666.683 38.4788 670.972 42.3035 673.97 47.2652C677.071 52.227 678.622 58.0157 678.622 64.6313V66.1818C678.622 72.6941 677.071 78.4311 673.97 83.3928C670.972 88.2512 666.683 92.0242 661.101 94.7118C655.519 97.3994 649.006 98.7432 641.564 98.7432C634.121 98.7432 627.557 97.3994 621.872 94.7118C616.29 92.0242 611.949 88.2512 608.847 83.3928C605.85 78.4311 604.351 72.6941 604.351 66.1818V64.6313C604.351 58.0157 605.85 52.227 608.847 47.2652C611.949 42.3035 616.29 38.4788 621.872 35.7912C627.557 33.1036 634.121 31.7598 641.564 31.7598ZM669.163 64.3212C669.163 56.6719 666.734 50.7281 661.876 46.49C657.018 42.2518 650.247 40.1328 641.564 40.1328C632.881 40.1328 626.058 42.3035 621.097 46.645C616.135 50.8832 613.654 56.7752 613.654 64.3212V66.3369C613.654 73.8828 616.135 79.7749 621.097 84.013C626.058 88.2512 632.881 90.3703 641.564 90.3703C650.247 90.3703 657.018 88.2512 661.876 84.013C666.734 79.7749 669.163 73.8828 669.163 66.3369V64.3212ZM647.611 49.2809C651.539 49.2809 654.588 50.2113 656.759 52.0719C658.93 53.8292 660.015 56.3101 660.015 59.5145V60.5999C660.015 63.0808 659.292 65.2515 657.845 67.1122C656.501 68.8694 654.537 70.0582 651.952 70.6784L659.86 80.2917V81.067H649.627L641.874 71.2986H634.121V81.067H624.663V49.2809H647.611ZM634.121 64.4762H645.13C646.784 64.4762 648.024 64.1144 648.851 63.3909C649.782 62.6673 650.247 61.6853 650.247 60.4448V59.6696C650.247 58.5325 649.782 57.6539 648.851 57.0336C648.024 56.3101 646.784 55.9483 645.13 55.9483H634.121V64.4762ZM688.709 60.7549V39.8226H791.51V60.7549H751.816V141.538H728.403V60.7549H688.709ZM896.234 39.8226V60.2898H829.096V80.4468H893.133V100.759H829.096V121.071H896.234V141.538H805.837V39.8226H896.234ZM974.638 143.399C962.337 143.399 951.535 141.28 942.232 137.042C932.929 132.803 925.744 126.808 920.679 119.055C915.718 111.199 913.237 102.051 913.237 91.6107V89.9051C913.237 79.4648 915.718 70.3683 920.679 62.6156C925.744 54.7595 932.929 48.7124 942.232 44.4743C951.535 40.1328 962.337 37.962 974.638 37.962C986.009 37.962 996.191 39.8226 1005.18 43.5439C1014.28 47.2652 1021.36 52.4337 1026.43 59.0493C1031.59 65.665 1034.18 73.1076 1034.18 81.3771V82.6176H1010.46V81.3771C1010.46 77.139 1008.9 73.366 1005.8 70.0582C1002.81 66.7504 998.568 64.1661 993.089 62.3055C987.714 60.4448 981.512 59.5145 974.483 59.5145C962.182 59.5145 952.827 62.0987 946.418 67.2672C940.113 72.4357 936.96 79.8783 936.96 89.595V91.9208C936.96 101.741 940.113 109.183 946.418 114.249C952.724 119.314 962.13 121.846 974.638 121.846C985.492 121.846 994.175 119.882 1000.69 115.954C1007.2 111.923 1010.46 106.651 1010.46 100.139V99.0533H1034.18V100.139C1034.18 108.408 1031.59 115.851 1026.43 122.466C1021.36 128.979 1014.28 134.095 1005.18 137.817C996.191 141.538 986.009 143.399 974.638 143.399ZM1076.67 39.8226V80.2917H1132.95V39.8226H1156.21V141.538H1132.95V101.069H1076.67V141.538H1053.41V39.8226H1076.67Z" fill="black"/>
</svg>
