<svg width="1925" height="712" viewBox="0 0 1925 712" fill="none" xmlns="http://www.w3.org/2000/svg">
<path d="M872.789 302.728V306.294L828.289 404.444H801.309L756.809 306.294V302.728H780.687L814.799 381.651L848.911 302.728H872.789ZM976.913 302.728V323.195H909.774V343.352H973.812V363.664H909.774V383.976H976.913V404.444H886.516V302.728H976.913ZM1101.83 337.305C1101.83 345.575 1099.2 352.345 1093.93 357.617C1088.76 362.889 1081.37 366.197 1071.75 367.541L1101.37 400.877V404.444H1074.7L1043.07 368.006H1021.83V404.444H998.567V302.728H1063.07C1075.16 302.728 1084.62 305.674 1091.44 311.566C1098.37 317.355 1101.83 325.366 1101.83 335.6V337.305ZM1078.11 335.134C1078.11 331.31 1076.77 328.415 1074.08 326.451C1071.49 324.384 1067.62 323.35 1062.45 323.35H1021.83V348.779H1062.45C1067.51 348.779 1071.39 347.797 1074.08 345.833C1076.77 343.766 1078.11 340.768 1078.11 336.84V335.134ZM1174.19 302.728C1193.21 302.728 1207.58 306.966 1217.3 315.443C1227.12 323.816 1232.03 336.272 1232.03 352.811V354.516C1232.03 371.055 1227.17 383.511 1217.45 391.884C1207.73 400.257 1193.31 404.444 1174.19 404.444H1123.49V302.728H1174.19ZM1174.19 383.511C1185.87 383.511 1194.45 381.186 1199.93 376.534C1205.51 371.882 1208.3 364.646 1208.3 354.826V352.656C1208.3 342.939 1205.46 335.703 1199.78 330.948C1194.09 326.09 1185.51 323.66 1174.04 323.66H1146.75V383.511H1174.19ZM1341.99 302.728V323.195H1274.85V343.352H1338.89V363.664H1274.85V383.976H1341.99V404.444H1251.59V302.728H1341.99ZM1396.67 294.665C1404.11 294.665 1410.62 296.009 1416.2 298.697C1421.79 301.384 1426.08 305.209 1429.07 310.171C1432.17 315.132 1433.72 320.921 1433.72 327.537V329.087C1433.72 335.6 1432.17 341.337 1429.07 346.298C1426.08 351.157 1421.79 354.93 1416.2 357.617C1410.62 360.305 1404.11 361.649 1396.67 361.649C1389.22 361.649 1382.66 360.305 1376.98 357.617C1371.39 354.93 1367.05 351.157 1363.95 346.298C1360.95 341.337 1359.45 335.6 1359.45 329.087V327.537C1359.45 320.921 1360.95 315.132 1363.95 310.171C1367.05 305.209 1371.39 301.384 1376.98 298.697C1382.66 296.009 1389.22 294.665 1396.67 294.665ZM1424.27 327.227C1424.27 319.577 1421.84 313.634 1416.98 309.395C1412.12 305.157 1405.35 303.038 1396.67 303.038C1387.98 303.038 1381.16 305.209 1376.2 309.551C1371.24 313.789 1368.76 319.681 1368.76 327.227V329.242C1368.76 336.788 1371.24 342.68 1376.2 346.919C1381.16 351.157 1387.98 353.276 1396.67 353.276C1405.35 353.276 1412.12 351.157 1416.98 346.919C1421.84 342.68 1424.27 336.788 1424.27 329.242V327.227ZM1402.71 312.186C1406.64 312.186 1409.69 313.117 1411.86 314.977C1414.03 316.735 1415.12 319.216 1415.12 322.42V323.505C1415.12 325.986 1414.39 328.157 1412.95 330.018C1411.6 331.775 1409.64 332.964 1407.06 333.584L1414.96 343.197V343.973H1404.73L1396.98 334.204H1389.22V343.973H1379.77V312.186H1402.71ZM1389.22 327.382H1400.23C1401.89 327.382 1403.13 327.02 1403.95 326.296C1404.88 325.573 1405.35 324.591 1405.35 323.35V322.575C1405.35 321.438 1404.88 320.559 1403.95 319.939C1403.13 319.216 1401.89 318.854 1400.23 318.854H1389.22V327.382ZM1443.81 323.66V302.728H1546.61V323.66H1506.92V404.444H1483.51V323.66H1443.81ZM1651.34 302.728V323.195H1584.2V343.352H1648.24V363.664H1584.2V383.976H1651.34V404.444H1560.94V302.728H1651.34ZM1729.74 406.304C1717.44 406.304 1706.64 404.185 1697.33 399.947C1688.03 395.709 1680.85 389.713 1675.78 381.961C1670.82 374.105 1668.34 364.957 1668.34 354.516V352.811C1668.34 342.37 1670.82 333.274 1675.78 325.521C1680.85 317.665 1688.03 311.618 1697.33 307.38C1706.64 303.038 1717.44 300.868 1729.74 300.868C1741.11 300.868 1751.29 302.728 1760.29 306.449C1769.38 310.171 1776.46 315.339 1781.53 321.955C1786.7 328.571 1789.28 336.013 1789.28 344.283V345.523H1765.56V344.283C1765.56 340.044 1764.01 336.272 1760.91 332.964C1757.91 329.656 1753.67 327.072 1748.19 325.211C1742.82 323.35 1736.62 322.42 1729.59 322.42C1717.29 322.42 1707.93 325.004 1701.52 330.173C1695.22 335.341 1692.06 342.784 1692.06 352.501V354.826C1692.06 364.646 1695.22 372.089 1701.52 377.154C1707.83 382.219 1717.23 384.752 1729.74 384.752C1740.59 384.752 1749.28 382.788 1755.79 378.86C1762.3 374.828 1765.56 369.556 1765.56 363.044V361.959H1789.28V363.044C1789.28 371.314 1786.7 378.756 1781.53 385.372C1776.46 391.884 1769.38 397.001 1760.29 400.722C1751.29 404.444 1741.11 406.304 1729.74 406.304ZM1831.77 302.728V343.197H1888.05V302.728H1911.31V404.444H1888.05V363.975H1831.77V404.444H1808.51V302.728H1831.77Z" fill="black"/>
<ellipse cx="452.937" cy="258.599" rx="54.2016" ry="113.331" transform="rotate(45 452.937 258.599)" fill="black"/>
<ellipse cx="257.836" cy="453.715" rx="54.2016" ry="113.331" transform="rotate(45 257.836 453.715)" fill="black"/>
<ellipse cx="452.945" cy="453.717" rx="54.2016" ry="113.331" transform="rotate(135 452.945 453.717)" fill="black"/>
<ellipse cx="257.831" cy="258.598" rx="54.2016" ry="113.331" transform="rotate(135 257.831 258.598)" fill="black"/>
</svg>
