<svg width="3983" height="712" viewBox="0 0 3983 712" fill="none" xmlns="http://www.w3.org/2000/svg">
<path d="M872.788 302.804V306.37L828.287 404.519H801.308L756.807 306.37V302.804H780.685L814.797 381.726L848.909 302.804H872.788ZM976.911 302.804V323.271H909.773V343.428H973.81V363.74H909.773V384.052H976.911V404.519H886.515V302.804H976.911ZM1101.83 337.381C1101.83 345.65 1099.2 352.421 1093.92 357.693C1088.76 362.965 1081.36 366.273 1071.75 367.616L1101.37 400.953V404.519H1074.7L1043.07 368.082H1021.82V404.519H998.565V302.804H1063.07C1075.16 302.804 1084.62 305.75 1091.44 311.642C1098.37 317.431 1101.83 325.442 1101.83 335.675V337.381ZM1078.11 335.21C1078.11 331.385 1076.76 328.491 1074.08 326.527C1071.49 324.46 1067.62 323.426 1062.45 323.426H1021.82V348.855H1062.45C1067.51 348.855 1071.39 347.873 1074.08 345.909C1076.76 343.841 1078.11 340.844 1078.11 336.916V335.21ZM1174.19 302.804C1193.21 302.804 1207.58 307.042 1217.29 315.518C1227.11 323.891 1232.02 336.347 1232.02 352.886V354.592C1232.02 371.131 1227.17 383.587 1217.45 391.96C1207.73 400.333 1193.31 404.519 1174.19 404.519H1123.49V302.804H1174.19ZM1174.19 383.587C1185.87 383.587 1194.45 381.261 1199.93 376.61C1205.51 371.958 1208.3 364.722 1208.3 354.902V352.731C1208.3 343.015 1205.46 335.779 1199.77 331.024C1194.09 326.165 1185.51 323.736 1174.03 323.736H1146.74V383.587H1174.19ZM1341.98 302.804V323.271H1274.85V343.428H1338.88V363.74H1274.85V384.052H1341.98V404.519H1251.59V302.804H1341.98ZM1396.67 294.741C1404.11 294.741 1410.62 296.085 1416.2 298.772C1421.78 301.46 1426.07 305.285 1429.07 310.246C1432.17 315.208 1433.72 320.997 1433.72 327.612V329.163C1433.72 335.675 1432.17 341.412 1429.07 346.374C1426.07 351.232 1421.78 355.005 1416.2 357.693C1410.62 360.381 1404.11 361.724 1396.67 361.724C1389.22 361.724 1382.66 360.381 1376.97 357.693C1371.39 355.005 1367.05 351.232 1363.95 346.374C1360.95 341.412 1359.45 335.675 1359.45 329.163V327.612C1359.45 320.997 1360.95 315.208 1363.95 310.246C1367.05 305.285 1371.39 301.46 1376.97 298.772C1382.66 296.085 1389.22 294.741 1396.67 294.741ZM1424.27 327.302C1424.27 319.653 1421.84 313.709 1416.98 309.471C1412.12 305.233 1405.35 303.114 1396.67 303.114C1387.98 303.114 1381.16 305.285 1376.2 309.626C1371.24 313.864 1368.76 319.756 1368.76 327.302V329.318C1368.76 336.864 1371.24 342.756 1376.2 346.994C1381.16 351.232 1387.98 353.351 1396.67 353.351C1405.35 353.351 1412.12 351.232 1416.98 346.994C1421.84 342.756 1424.27 336.864 1424.27 329.318V327.302ZM1402.71 312.262C1406.64 312.262 1409.69 313.192 1411.86 315.053C1414.03 316.81 1415.12 319.291 1415.12 322.496V323.581C1415.12 326.062 1414.39 328.233 1412.95 330.093C1411.6 331.851 1409.64 333.039 1407.05 333.66L1414.96 343.273V344.048H1404.73L1396.98 334.28H1389.22V344.048H1379.76V312.262H1402.71ZM1389.22 327.457H1400.23C1401.89 327.457 1403.13 327.096 1403.95 326.372C1404.88 325.648 1405.35 324.666 1405.35 323.426V322.651C1405.35 321.514 1404.88 320.635 1403.95 320.015C1403.13 319.291 1401.89 318.929 1400.23 318.929H1389.22V327.457ZM1443.81 323.736V302.804H1546.61V323.736H1506.92V404.519H1483.5V323.736H1443.81ZM1651.34 302.804V323.271H1584.2V343.428H1648.23V363.74H1584.2V384.052H1651.34V404.519H1560.94V302.804H1651.34ZM1729.74 406.38C1717.44 406.38 1706.64 404.261 1697.33 400.023C1688.03 395.785 1680.85 389.789 1675.78 382.036C1670.82 374.18 1668.34 365.032 1668.34 354.592V352.886C1668.34 342.446 1670.82 333.349 1675.78 325.597C1680.85 317.741 1688.03 311.694 1697.33 307.455C1706.64 303.114 1717.44 300.943 1729.74 300.943C1741.11 300.943 1751.29 302.804 1760.29 306.525C1769.38 310.246 1776.46 315.415 1781.53 322.031C1786.7 328.646 1789.28 336.089 1789.28 344.358V345.599H1765.56V344.358C1765.56 340.12 1764.01 336.347 1760.91 333.039C1757.91 329.732 1753.67 327.147 1748.19 325.287C1742.82 323.426 1736.61 322.496 1729.58 322.496C1717.28 322.496 1707.93 325.08 1701.52 330.248C1695.21 335.417 1692.06 342.859 1692.06 352.576V354.902C1692.06 364.722 1695.21 372.165 1701.52 377.23C1707.83 382.295 1717.23 384.827 1729.74 384.827C1740.59 384.827 1749.28 382.863 1755.79 378.935C1762.3 374.904 1765.56 369.632 1765.56 363.12V362.034H1789.28V363.12C1789.28 371.389 1786.7 378.832 1781.53 385.448C1776.46 391.96 1769.38 397.077 1760.29 400.798C1751.29 404.519 1741.11 406.38 1729.74 406.38ZM1831.77 302.804V343.273H1888.05V302.804H1911.31V404.519H1888.05V364.05H1831.77V404.519H1808.51V302.804H1831.77ZM2017.64 292.415V414.908H2001.2V292.415H2017.64ZM2200.45 352.886C2205.92 354.954 2210.11 357.796 2213.01 361.414C2215.9 365.032 2217.35 369.219 2217.35 373.974V375.834C2217.35 385.551 2212.64 393.097 2203.24 398.472C2193.93 403.744 2180.65 406.38 2163.39 406.38C2144.68 406.38 2130.41 402.865 2120.59 395.836C2110.88 388.704 2106.02 378.315 2106.02 364.67V363.275H2121.68V364.67C2121.68 374.077 2125.04 381.003 2131.76 385.448C2138.58 389.789 2149.23 391.96 2163.7 391.96C2176.62 391.96 2186.18 390.616 2192.38 387.929C2198.59 385.241 2201.69 381.054 2201.69 375.369V373.664C2201.69 368.909 2199.36 365.549 2194.71 363.585C2190.06 361.518 2182.15 360.484 2170.99 360.484H2143.85V346.684H2169.9C2180.24 346.684 2187.68 345.599 2192.23 343.428C2196.88 341.257 2199.21 337.743 2199.21 332.884V331.179C2199.21 320.635 2186.96 315.363 2162.46 315.363C2148.81 315.363 2138.68 317.637 2132.07 322.186C2125.45 326.734 2122.14 333.608 2122.14 342.808V344.048H2106.64V342.808C2106.64 329.266 2111.45 318.929 2121.06 311.797C2130.78 304.561 2144.68 300.943 2162.77 300.943C2179.31 300.943 2192.12 303.527 2201.22 308.696C2210.32 313.864 2214.87 321.1 2214.87 330.403V332.419C2214.87 341.619 2210.06 348.441 2200.45 352.886ZM2335.47 402.193V404.519H2319.66L2307.56 378.78H2250.19L2238.1 404.519H2222.28V402.193L2270.35 302.804H2287.4L2335.47 402.193ZM2300.89 364.825L2278.88 318.154L2256.86 364.825H2300.89ZM2442.7 302.804V316.604H2368.27V345.134H2413.7C2425.38 345.134 2434.43 347.666 2440.84 352.731C2447.35 357.693 2450.6 364.722 2450.6 373.819V375.834C2450.6 384.827 2447.35 391.857 2440.84 396.922C2434.32 401.987 2425.28 404.519 2413.7 404.519H2352.76V302.804H2442.7ZM2413.55 390.719C2420.16 390.719 2425.38 389.376 2429.21 386.688C2433.13 384 2435.1 380.383 2435.1 375.834V373.819C2435.1 369.167 2433.19 365.549 2429.36 362.965C2425.54 360.277 2420.27 358.933 2413.55 358.933H2368.27V390.719H2413.55ZM2528.31 406.38C2516.63 406.38 2506.4 404.261 2497.61 400.023C2488.82 395.785 2482.05 389.789 2477.3 382.036C2472.54 374.284 2470.16 365.187 2470.16 354.747V352.731C2470.16 342.291 2472.54 333.194 2477.3 325.442C2482.05 317.586 2488.82 311.539 2497.61 307.3C2506.4 303.062 2516.63 300.943 2528.31 300.943C2539.99 300.943 2550.17 303.062 2558.86 307.3C2567.64 311.539 2574.41 317.586 2579.17 325.442C2583.92 333.194 2586.3 342.291 2586.3 352.731V354.747C2586.3 365.187 2583.92 374.284 2579.17 382.036C2574.41 389.789 2567.64 395.785 2558.86 400.023C2550.17 404.261 2539.99 406.38 2528.31 406.38ZM2528.31 391.96C2541.64 391.96 2552.03 388.704 2559.48 382.192C2566.92 375.679 2570.64 366.634 2570.64 355.057V352.576C2570.64 340.895 2566.92 331.799 2559.48 325.287C2552.03 318.671 2541.64 315.363 2528.31 315.363C2514.98 315.363 2504.54 318.671 2496.99 325.287C2489.55 331.799 2485.83 340.895 2485.83 352.576V355.057C2485.83 366.634 2489.55 375.679 2496.99 382.192C2504.54 388.704 2514.98 391.96 2528.31 391.96ZM2593.53 316.604V302.804H2696.96V316.604H2652.92V404.519H2637.57V316.604H2593.53ZM2802.9 402.193V404.519H2787.09L2775 378.78H2717.63L2705.53 404.519H2689.72V402.193L2737.78 302.804H2754.84L2802.9 402.193ZM2768.33 364.825L2746.31 318.154L2724.29 364.825H2768.33ZM2927 406.38C2915.32 406.38 2905.08 404.261 2896.3 400.023C2887.51 395.785 2880.74 389.789 2875.99 382.036C2871.23 374.284 2868.85 365.187 2868.85 354.747V352.731C2868.85 342.291 2871.23 333.194 2875.99 325.442C2880.74 317.586 2887.51 311.539 2896.3 307.3C2905.08 303.062 2915.32 300.943 2927 300.943C2938.68 300.943 2948.86 303.062 2957.54 307.3C2966.33 311.539 2973.1 317.586 2977.86 325.442C2982.61 333.194 2984.99 342.291 2984.99 352.731V354.747C2984.99 365.187 2982.61 374.284 2977.86 382.036C2973.1 389.789 2966.33 395.785 2957.54 400.023C2948.86 404.261 2938.68 406.38 2927 406.38ZM2927 391.96C2940.33 391.96 2950.72 388.704 2958.16 382.192C2965.61 375.679 2969.33 366.634 2969.33 355.057V352.576C2969.33 340.895 2965.61 331.799 2958.16 325.287C2950.72 318.671 2940.33 315.363 2927 315.363C2913.66 315.363 2903.22 318.671 2895.68 325.287C2888.24 331.799 2884.51 340.895 2884.51 352.576V355.057C2884.51 366.634 2888.24 375.679 2895.68 382.192C2903.22 388.704 2913.66 391.96 2927 391.96ZM3161.18 302.804V316.604H3086.76V345.134H3132.19C3143.87 345.134 3152.91 347.666 3159.32 352.731C3165.84 357.693 3169.09 364.722 3169.09 373.819V375.834C3169.09 384.827 3165.84 391.857 3159.32 396.922C3152.81 401.987 3143.77 404.519 3132.19 404.519H3071.25V302.804H3161.18ZM3132.03 390.719C3138.65 390.719 3143.87 389.376 3147.69 386.688C3151.62 384 3153.59 380.383 3153.59 375.834V373.819C3153.59 369.167 3151.67 365.549 3147.85 362.965C3144.02 360.277 3138.75 358.933 3132.03 358.933H3086.76V390.719H3132.03ZM3289.86 302.804V305.13L3245.36 384.982C3241.22 392.425 3236.88 397.542 3232.33 400.333C3227.89 403.124 3221.84 404.519 3214.19 404.519H3196.05V390.719H3214.19C3218.22 390.719 3221.27 390.203 3223.34 389.169C3225.51 388.135 3227.47 386.223 3229.23 383.432L3180.85 305.13V302.804H3196.98L3237.6 369.012L3273.89 302.804H3289.86ZM3406.14 390.719V425.141H3390.63V404.519H3296.98V425.141H3281.63V390.719H3294.81C3300.91 381.313 3304.11 369.477 3304.42 355.212L3305.35 302.804H3390.17V390.719H3406.14ZM3318.69 355.677C3318.38 369.942 3315.59 381.623 3310.32 390.719H3374.82V316.604H3319.62L3318.69 355.677ZM3523.5 302.804V305.13L3479 384.982C3474.86 392.425 3470.52 397.542 3465.97 400.333C3461.53 403.124 3455.48 404.519 3447.83 404.519H3429.69V390.719H3447.83C3451.86 390.719 3454.91 390.203 3456.98 389.169C3459.15 388.135 3461.11 386.223 3462.87 383.432L3414.49 305.13V302.804H3430.62L3471.24 369.012L3507.53 302.804H3523.5ZM3703.4 390.719V425.141H3687.9V404.519H3536.57V302.804H3552.07V390.719H3604.32V302.804H3619.67V390.719H3671.93V302.804H3687.43V390.719H3703.4ZM3810.39 302.804V316.604H3739.38V346.684H3807.29V360.484H3739.38V390.719H3810.39V404.519H3723.87V302.804H3810.39ZM3966.94 404.519H3951.59V322.651L3909.42 404.519H3893.45L3851.27 322.496V404.519H3835.92V302.804H3857.63L3901.51 387.153L3945.39 302.804H3966.94V404.519Z" fill="white"/>
<ellipse cx="452.935" cy="258.674" rx="54.2016" ry="113.331" transform="rotate(45 452.935 258.674)" fill="white"/>
<ellipse cx="257.834" cy="453.791" rx="54.2016" ry="113.331" transform="rotate(45 257.834 453.791)" fill="white"/>
<ellipse cx="452.943" cy="453.792" rx="54.2016" ry="113.331" transform="rotate(135 452.943 453.792)" fill="white"/>
<ellipse cx="257.83" cy="258.674" rx="54.2016" ry="113.331" transform="rotate(135 257.83 258.674)" fill="white"/>
</svg>
