<svg id="Слой_1" data-name="Слой 1" xmlns="http://www.w3.org/2000/svg" viewBox="0 0 1367.85 378.81">
  <g>
    <ellipse cx="379.92" cy="258.45" rx="113.3" ry="54.2" transform="translate(-167.45 176.59) rotate(-45)"/>
    <ellipse cx="184.81" cy="453.55" rx="113.3" ry="54.2" transform="translate(-362.56 95.77) rotate(-45)"/>
    <ellipse cx="379.91" cy="453.56" rx="54.2" ry="113.3" transform="translate(-305.42 233.73) rotate(-45)"/>
    <ellipse cx="184.82" cy="258.44" rx="54.2" ry="113.3" transform="translate(-224.59 38.63) rotate(-45)"/>
    <rect x="512.82" y="85.18" height="4.56"/>
  </g>
  <g>
    <path d="M780.81,250.88a31.59,31.59,0,0,1,5.13,17.95v2.35q0,18.18-14.1,28.75t-38.26,10.58H646V170.31h83.56q24.79,0,38.36,9.73t13.57,27.24v2.36q0,18.8-15.6,29.06A34.74,34.74,0,0,1,780.81,250.88ZM678,198.31v28.21h51.29q19.88,0,19.87-13v-2.13a10.91,10.91,0,0,0-5-9.73q-5-3.31-14.64-3.31Zm75.22,68.17q0-13.25-20.09-13.25H678v29.28h55.13c6.42,0,11.36-1.21,14.86-3.63a11.75,11.75,0,0,0,5.23-10.26Z" transform="translate(-95.98 -167.75)"/>
    <path d="M938.31,170.31v28.21H845.78V226.3H934v28H845.78v28h92.53v28.21H813.72V170.31Z" transform="translate(-95.98 -167.75)"/>
    <path d="M1057.14,170.31q24.78,0,39.11,12t14.31,32.7v2.35q0,20.94-14.31,32.91t-39.11,12h-56.85v48.3H968.23V170.31Zm15.17,59.31q5.55-4.17,5.56-12.29V215q0-7.9-5.56-12.08t-16-4.16h-56v35h56Q1066.75,233.78,1072.31,229.62Z" transform="translate(-95.98 -167.75)"/>
    <path d="M1286.45,281.66v57.27h-32.06V310.51H1142.62v28.42h-32.06V281.66h18q11.33-18,12-45.74l1.28-65.61h123.1V281.66Zm-126.52,0h72.88v-82.5H1171l-.85,37.4Q1169.55,263.27,1159.93,281.66Z" transform="translate(-95.98 -167.75)"/>
    <path d="M1424,176.51q19.13,8.76,29.49,25t10.37,37.83v2.35q0,21.58-10.37,37.72T1424,304.31q-19.12,8.76-44.56,8.76-23.29,0-42.1-7.8t-29.49-21.58A48.82,48.82,0,0,1,1297.13,253V252h32.7V253a23.46,23.46,0,0,0,6.2,16.13q6.2,7,17.42,10.9a77.87,77.87,0,0,0,26,4q21,0,34-7.7a33.88,33.88,0,0,0,16.46-22.22h-73.3V226.73h73.3a34,34,0,0,0-16.24-22.22q-12.83-7.69-34-7.7a76.54,76.54,0,0,0-25.86,4.06q-11.34,4.06-17.63,11.12a23.61,23.61,0,0,0-6.31,16.24v1.07h-32.7v-1.07a49.55,49.55,0,0,1,10.69-31q10.68-13.89,29.39-21.69t42.2-7.8Q1404.85,167.75,1424,176.51Z" transform="translate(-95.98 -167.75)"/>
  </g>
  <g>
    <path d="M656,387.62v40.84l39.22-40.84h9.51v53.49h-9.94V400.27l-39.22,40.84H646V387.62Z" transform="translate(-95.98 -167.75)"/>
    <path d="M733.43,387.62v22.05h38.46V387.62h10.37v53.49H771.89V418.85H733.43v22.26H723.06V387.62Z" transform="translate(-95.98 -167.75)"/>
    <path d="M845.57,387.62v9.08H811v44.41H800.63V387.62Z" transform="translate(-95.98 -167.75)"/>
    <path d="M903.48,389.68a25.43,25.43,0,0,1,11.13,9.45,26.09,26.09,0,0,1,3.89,14.32v1.73a26.32,26.32,0,0,1-3.89,14.36,25.29,25.29,0,0,1-11.13,9.51,39.77,39.77,0,0,1-16.85,3.35,33.23,33.23,0,0,1-11.13-1.83,27.22,27.22,0,0,1-9.08-5.3v24.2H856.05V387.62h9.62l.43,6.16a28.76,28.76,0,0,1,9.29-5.51,32.51,32.51,0,0,1,11.24-1.94A39.77,39.77,0,0,1,903.48,389.68Zm4.32,23.77q0-8.22-5.67-12.91t-15.61-4.7a29.72,29.72,0,0,0-11.72,2.26,20.55,20.55,0,0,0-8.38,6.16v20.1a20.91,20.91,0,0,0,8.38,6.21,29.05,29.05,0,0,0,11.72,2.32q9.94,0,15.61-4.75t5.67-13Z" transform="translate(-95.98 -167.75)"/>
    <path d="M991,417.77H939.46a14.49,14.49,0,0,0,6,11.07q5.5,4.05,14.69,4.05,8.53,0,13.89-2.86t5.78-7.62H991a18.84,18.84,0,0,1-9,14.7q-8.15,5.29-21.77,5.29a39.65,39.65,0,0,1-16.74-3.29,25,25,0,0,1-11-9.35,25.82,25.82,0,0,1-3.83-14.15v-2.27A26.34,26.34,0,0,1,932.49,399a25,25,0,0,1,11-9.4,39.65,39.65,0,0,1,16.74-3.29q14.37,0,22.59,7.08t8.21,19.5Zm-44.79-18.42a14.49,14.49,0,0,0-6.53,9.77H980a13.85,13.85,0,0,0-6.15-9.77q-5.19-3.51-13.62-3.51Q951.56,395.84,946.21,399.35Z" transform="translate(-95.98 -167.75)"/>
    <path d="M1073.43,431.92v23h-10.26V441.11h-57.48v13.82H995.43l-.11-23h8.32q5.4-8.1,5.51-20l.32-24.31h53.27v44.3Zm-21,0V396.7H1019l-.33,15.23a50.94,50.94,0,0,1-1.29,11.29,33,33,0,0,1-3.46,8.7Z" transform="translate(-95.98 -167.75)"/>
    <path d="M1094.39,387.62v40.84l39.22-40.84h9.51v53.49h-9.94V400.27L1094,441.11h-9.51V387.62Z" transform="translate(-95.98 -167.75)"/>
    <path d="M1219.72,417.77h-51.54a14.49,14.49,0,0,0,6,11.07q5.52,4.05,14.7,4.05,8.53,0,13.88-2.86t5.78-7.62h11.13a18.85,18.85,0,0,1-9,14.7q-8.16,5.29-21.77,5.29a39.7,39.7,0,0,1-16.75-3.29,25.06,25.06,0,0,1-11-9.35,25.91,25.91,0,0,1-3.83-14.15v-2.27a26.42,26.42,0,0,1,3.83-14.32,25,25,0,0,1,11-9.4,39.7,39.7,0,0,1,16.75-3.29q14.37,0,22.58,7.08t8.21,19.5Zm-44.78-18.42a14.47,14.47,0,0,0-6.54,9.77h40.3a13.89,13.89,0,0,0-6.16-9.77q-5.19-3.51-13.61-3.51Q1180.28,395.84,1174.94,399.35Z" transform="translate(-95.98 -167.75)"/>
    <path d="M1244.35,387.62v22.05h38.46V387.62h10.38v53.49h-10.38V418.85h-38.46v22.26H1234V387.62Z" transform="translate(-95.98 -167.75)"/>
    <path d="M1300.53,396.92v-9.3h62.88v9.3h-26v44.19H1327V396.92Z" transform="translate(-95.98 -167.75)"/>
    <path d="M1428.4,408.58q5.67,4.88,5.67,13.29v1.41a16.21,16.21,0,0,1-5.67,13q-5.67,4.86-15.94,4.87h-37.71V387.62h10.38v16.1h27.33Q1422.72,403.72,1428.4,408.58Zm-5,13.29q0-9-11.66-9h-26.58v19h26.58c4,0,6.89-.75,8.8-2.27a7.65,7.65,0,0,0,2.86-6.37Zm28.74-34.25v53.49h-10.37V387.62Z" transform="translate(-95.98 -167.75)"/>
    <path d="M656,491.79v40.83l39.22-40.83h9.51v53.48h-9.94V504.43l-39.22,40.84H646V491.79Z" transform="translate(-95.98 -167.75)"/>
    <path d="M758.38,501.08v-9.29h62.89v9.29h-26v44.19H784.85V501.08Z" transform="translate(-95.98 -167.75)"/>
    <path d="M887.93,521.93H836.39A14.49,14.49,0,0,0,842.44,533q5.5,4.05,14.69,4,8.54,0,13.89-2.86c3.56-1.91,5.49-4.44,5.78-7.62h11.13a18.84,18.84,0,0,1-9,14.7q-8.14,5.29-21.77,5.29a39.65,39.65,0,0,1-16.74-3.29,25,25,0,0,1-11-9.35,25.82,25.82,0,0,1-3.83-14.15V517.5a26.34,26.34,0,0,1,3.83-14.32,25,25,0,0,1,11-9.4,39.65,39.65,0,0,1,16.74-3.29q14.37,0,22.58,7.08t8.22,19.5Zm-44.79-18.42a14.49,14.49,0,0,0-6.53,9.78h40.3a13.92,13.92,0,0,0-6.16-9.78Q865.56,500,857.13,500,848.49,500,843.14,503.51Z" transform="translate(-95.98 -167.75)"/>
    <path d="M956.1,543.75v1.52H943.78l-19.55-20.64-19.56,20.64H892.36v-1.52L917,518.25l-24.2-24.95v-1.51H905l19.23,20.09,19.55-20.09h11.67v1.51l-24.09,24.95Z" transform="translate(-95.98 -167.75)"/>
    <path d="M979.22,491.79v22h38.46v-22h10.38v53.48h-10.38V523H979.22v22.26H968.85V491.79Z" transform="translate(-95.98 -167.75)"/>
    <path d="M1057.33,543.27a25.17,25.17,0,0,1-11.12-9.4,26,26,0,0,1-3.89-14.32v-1.84a26.45,26.45,0,0,1,3.89-14.47,25,25,0,0,1,11.12-9.46,41,41,0,0,1,17.07-3.29,40.33,40.33,0,0,1,16.91,3.29,24.71,24.71,0,0,1,11,9.46,26.77,26.77,0,0,1,3.84,14.47v1.84a26.32,26.32,0,0,1-3.84,14.32,24.84,24.84,0,0,1-11,9.4,40.33,40.33,0,0,1-16.91,3.29A41,41,0,0,1,1057.33,543.27Zm32.52-10.86q5.63-4.65,5.62-12.86v-1.84q0-8.31-5.62-13T1074.3,500q-10.15,0-15.72,4.64T1053,517.71v1.84q0,8.22,5.67,12.86t15.62,4.64Q1084.23,537.05,1089.85,532.41Z" transform="translate(-95.98 -167.75)"/>
    <path d="M1178,545.27h-10.37V500.86h-32.74l-.43,19.34q-.33,12.85-4.92,19t-13.88,6.11h-4.86v-9.19h2.59q5.73,0,8.26-3.78t2.76-12.64l.65-27.87H1178Z" transform="translate(-95.98 -167.75)"/>
    <path d="M1207.3,543.27a25.14,25.14,0,0,1-11.13-9.4,26.09,26.09,0,0,1-3.89-14.32v-1.84a26.54,26.54,0,0,1,3.89-14.47,25,25,0,0,1,11.13-9.46,41,41,0,0,1,17.07-3.29,40.36,40.36,0,0,1,16.91,3.29,24.76,24.76,0,0,1,11,9.46,26.85,26.85,0,0,1,3.83,14.47v1.84a26.4,26.4,0,0,1-3.83,14.32,24.89,24.89,0,0,1-11,9.4,40.36,40.36,0,0,1-16.91,3.29A41,41,0,0,1,1207.3,543.27Zm32.52-10.86q5.61-4.65,5.62-12.86v-1.84q0-8.31-5.62-13t-15.56-4.7q-10.15,0-15.72,4.64T1203,517.71v1.84q0,8.22,5.67,12.86t15.61,4.64Q1234.21,537.05,1239.82,532.41Z" transform="translate(-95.98 -167.75)"/>
    <path d="M1315.34,491.79v9.07h-34.57v44.41h-10.38V491.79Z" transform="translate(-95.98 -167.75)"/>
    <path d="M1335.76,491.79v40.83L1375,491.79h9.5v53.48h-9.94V504.43l-39.21,40.84h-9.51V491.79Z" transform="translate(-95.98 -167.75)"/>
    <path d="M1412.79,491.79v40.83L1452,491.79h9.51v53.48h-9.94V504.43l-39.22,40.84h-9.51V491.79Z" transform="translate(-95.98 -167.75)"/>
  </g>
</svg>
